<svg width="24" height="24" viewBox="0 0 24 24" fill="none" xmlns="http://www.w3.org/2000/svg">
  <path d="M7 11H11" stroke-width="1.5" stroke-linecap="round" stroke-linejoin="round"/>
  <path d="M7.5 3V6" stroke-width="1.5" stroke-linecap="round" stroke-linejoin="round"/>
  <path d="M16.5 3V6" stroke-width="1.5" stroke-linecap="round" stroke-linejoin="round"/>
  <path d="M9 21H6C4.34315 21 3 19.6569 3 18V7.5C3 5.84315 4.34315 4.5 6 4.5H18C19.6569 4.5 21 5.84315 21 7.5V11" stroke-width="1.5" stroke-linecap="round" stroke-linejoin="round"/>
  <path fill-rule="evenodd" clip-rule="evenodd" d="M12.5 17H14.5C14.7761 17 15 17.2239 15 17.5V21H12V17.5C12 17.2239 12.2239 17 12.5 17Z" stroke-width="1.5" stroke-linecap="round" stroke-linejoin="round"/>
  <path fill-rule="evenodd" clip-rule="evenodd" d="M15.5 13H17.5C17.7761 13 18 13.2239 18 13.5V21H15V13.5C15 13.2239 15.2239 13 15.5 13Z" stroke-width="1.5" stroke-linecap="round" stroke-linejoin="round"/>
  <path fill-rule="evenodd" clip-rule="evenodd" d="M18.5 15H20.5C20.7761 15 21 15.2239 21 15.5V21H18V15.5C18 15.2239 18.2239 15 18.5 15Z" stroke-width="1.5" stroke-linecap="round" stroke-linejoin="round"/>
  <path d="M7 15H8" stroke-width="1.5" stroke-linecap="round" stroke-linejoin="round"/>
</svg>
