<svg width="24" height="24" viewBox="0 0 24 24" fill="none" xmlns="http://www.w3.org/2000/svg">
  <path d="M16 15L19 12L16 9" stroke="#464E5F" stroke-width="1.5" stroke-linecap="round" stroke-linejoin="round"/>
  <path d="M16 15L19 12L16 9" stroke="#464E5F" stroke-width="1.5" stroke-linecap="round" stroke-linejoin="round"/>
  <path d="M18.4 12H8.8" stroke="#464E5F" stroke-width="1.5" stroke-linecap="round" stroke-linejoin="round"/>
  <path d="M18.4 12H8.8" stroke="#464E5F" stroke-width="1.5" stroke-linecap="round" stroke-linejoin="round"/>
  <path d="M18.364 18.364C15.79 20.938 11.9189 21.708 8.55588 20.315C5.19281 18.9219 3.00003 15.6402 3.00003 12C3.00003 8.35988 5.19281 5.07815 8.55588 3.68513C11.9189 2.2921 15.79 3.0621 18.364 5.63608" stroke="#464E5F" stroke-width="1.5" stroke-linecap="round" stroke-linejoin="round"/>
  <path d="M18.364 18.364C15.79 20.938 11.9189 21.708 8.55588 20.315C5.19281 18.9219 3.00003 15.6402 3.00003 12C3.00003 8.35988 5.19281 5.07815 8.55588 3.68513C11.9189 2.2921 15.79 3.0621 18.364 5.63608" stroke="#464E5F" stroke-width="1.5" stroke-linecap="round" stroke-linejoin="round"/>
</svg>
