<svg width="24" height="24" viewBox="0 0 24 24" fill="none" xmlns="http://www.w3.org/2000/svg">
  <path fill-rule="evenodd" clip-rule="evenodd" d="M16.7386 11.6255L12.226 15.2356C11.8933 15.5018 11.4137 15.4752 11.1124 15.1739L8.82608 12.8876C8.52481 12.5863 8.49824 12.1067 8.7644 11.774L12.3745 7.26138C14.0253 5.19788 16.5246 3.99667 19.1672 3.99667V3.99667C19.629 3.99667 20.0033 4.37104 20.0033 4.83284V4.83284C20.0033 7.47541 18.8021 9.97469 16.7386 11.6255Z" stroke-width="1.5" stroke-linecap="round" stroke-linejoin="round"/>
  <path d="M8.59725 12.4585L6.703 11.8271C6.47303 11.7505 6.28765 11.5778 6.19488 11.3539C6.10212 11.1299 6.11111 10.8767 6.21951 10.6599L7.22958 8.63977C7.37124 8.3565 7.66077 8.17758 7.97749 8.17758H11.6416" stroke-width="1.5" stroke-linecap="round" stroke-linejoin="round"/>
  <path d="M11.5412 15.4021L12.1729 17.297C12.2495 17.527 12.4222 17.7124 12.6461 17.8051C12.8701 17.8979 13.1233 17.8889 13.3401 17.7805L15.3602 16.7704C15.6435 16.6288 15.8224 16.3392 15.8224 16.0225V12.3584" stroke-width="1.5" stroke-linecap="round" stroke-linejoin="round"/>
  <path fill-rule="evenodd" clip-rule="evenodd" d="M6.60525 19.6114L3.99667 20.0033L4.38856 17.3948C4.51568 16.5485 5.17999 15.8842 6.02624 15.7571V15.7571C6.63773 15.6652 7.25652 15.869 7.69376 16.3063C8.13099 16.7435 8.33477 17.3623 8.2429 17.9738V17.9738C8.11577 18.82 7.45148 19.4843 6.60525 19.6114V19.6114Z" stroke-width="1.5" stroke-linecap="round" stroke-linejoin="round"/>
  <path d="M19.6532 7.26803C20.5385 8.68735 21.0066 10.3272 21.0038 12C21.0023 15.3173 19.1777 18.3654 16.2544 19.9336C13.3312 21.5019 9.7826 21.3365 7.01793 19.5031" stroke-width="1.5" stroke-linecap="round" stroke-linejoin="round"/>
  <path d="M4.49688 16.9821C2.15209 13.458 2.57979 8.77636 5.5243 5.73553C8.46882 2.69471 13.1343 2.11662 16.732 4.34682" stroke-width="1.5" stroke-linecap="round" stroke-linejoin="round"/>
</svg>
