<svg width="111" height="80" viewBox="0 0 111 80" fill="none" xmlns="http://www.w3.org/2000/svg">
  <path fill-rule="evenodd" clip-rule="evenodd" d="M61.5 80H49.5V79H61.5V80Z" fill="#C9CFE6"/>
  <path d="M45.5991 70H46.5591V67.56H47.1191L48.8311 70H49.9991L47.8791 67.072L49.8391 64.4H48.7351L47.1191 66.68H46.5591V64.4H45.5991V70Z" fill="#464E5F"/>
  <path d="M50.3934 70.08H50.4734C52.2174 70.08 52.3134 68.48 52.3134 66.96V65.28H54.2334V70H55.1934V64.4H51.3534V66.96C51.3534 68.2 51.3374 69.2 50.4734 69.2H50.3934V70.08Z" fill="#464E5F"/>
  <path d="M57.1801 70H58.1881L60.6281 64.4H59.6201L58.3881 67.36H58.3721L56.9801 64.4H55.9081L57.8761 68.4L57.1801 70Z" fill="#464E5F"/>
  <path d="M61.3491 70H63.3891C64.7411 70 65.4291 69.312 65.4291 68.224C65.4291 67.12 64.7571 66.448 63.3891 66.448H62.3091V65.28H65.0291V64.4H61.3491V70ZM62.3091 69.12V67.328H63.3491C64.0531 67.328 64.4211 67.696 64.4211 68.224C64.4211 68.768 64.0691 69.12 63.3491 69.12H62.3091Z" fill="#464E5F"/>
  <path fill-rule="evenodd" clip-rule="evenodd" d="M50.1557 5.41204C50.8852 3.58923 52.9949 2.75591 54.7727 3.58419L59.1382 5.62158C60.238 6.13429 61.1584 6.96489 61.7818 8.0048L67.755 17.9593C68.8277 19.7461 68.0643 22.0697 66.1404 22.871L54.3621 27.7789C52.7832 28.4374 50.9991 28.3994 49.4495 27.6757L45.4668 25.817C43.8255 25.0501 43.0664 23.1351 43.7396 21.4522L50.1557 5.41204ZM54.1388 4.94365C53.1407 4.47895 51.9574 4.94698 51.5483 5.96935L45.1324 22.0092C44.7549 22.9528 45.18 24.0272 46.1012 24.4577L50.0838 26.3164C50.5649 26.5411 51.076 26.6782 51.5937 26.7269L59.3096 7.4627C59.0597 7.2759 58.7901 7.11427 58.5045 6.98114L54.1388 4.94365ZM60.4371 8.68174L53.2709 26.5737C53.4446 26.5245 53.6162 26.4648 53.7846 26.3945L65.5635 21.4864C66.6422 21.0371 67.0709 19.7339 66.469 18.7314L60.4956 8.77659C60.4765 8.74481 60.4569 8.71299 60.4371 8.68174Z" fill="#3156A6"/>
  <path d="M93.6706 46H91.7266V37.6H93.1666V44.2H93.1906L96.6226 37.6H98.5666V46H97.1266V39.4H97.1026L93.6706 46Z" fill="#3156A6"/>
  <path d="M97.0066 35.2C97.0066 36.232 96.3586 36.88 95.1466 36.88C93.9346 36.88 93.2866 36.232 93.2866 35.2H94.3666C94.3666 35.74 94.6666 36.04 95.1466 36.04C95.6266 36.04 95.9266 35.74 95.9266 35.2H97.0066Z" fill="#3156A6"/>
  <path d="M64.5584 43.24C64.3184 44.932 63.1304 46.12 61.1384 46.12C58.9424 46.12 57.4784 44.656 57.4784 41.992V41.488C57.4784 38.956 58.9544 37.48 61.1384 37.48C63.1184 37.48 64.3184 38.68 64.5584 40.24H62.9984C62.7584 39.4 62.1584 38.8 61.1384 38.8C59.8664 38.8 58.9904 39.676 58.9904 41.488V41.992C58.9904 43.9 59.8904 44.8 61.1384 44.8C62.1344 44.8 62.7344 44.2 62.9744 43.24H64.5584Z" fill="#3156A6"/>
  <path fill-rule="evenodd" clip-rule="evenodd" d="M17.3538 46.108H15.9138V45.58C13.4538 45.58 12.0138 44.14 12.0138 41.932V41.668C12.0138 39.484 13.4778 38.02 15.9138 38.02V37.492H17.3538V38.02C19.8138 38.02 21.2538 39.46 21.2538 41.668V41.932C21.2538 44.116 19.7898 45.58 17.3538 45.58V46.108ZM19.7418 41.932V41.668C19.7418 40.192 18.8898 39.34 17.3538 39.34V44.26C18.9138 44.26 19.7418 43.432 19.7418 41.932ZM13.5258 41.668V41.932C13.5258 43.408 14.3778 44.26 15.9138 44.26V39.34C14.3538 39.34 13.5258 40.168 13.5258 41.668Z" fill="#3156A6"/>
  <path d="M24.8131 46H22.8691V37.6H24.3091V44.2H24.3331L27.7651 37.6H29.7091V46H28.2691V39.4H28.2451L24.8131 46Z" fill="#3156A6"/>
  <path d="M31.7459 46H33.1859V42.34H37.1459V46H38.5859V37.6H37.1459V41.02H33.1859V37.6H31.7459V46Z" fill="#3156A6"/>
  <path fill-rule="evenodd" clip-rule="evenodd" d="M41.3426 46H39.9026L42.9026 37.6H44.5826L47.5826 46H46.0466L45.3506 43.9H42.0506L41.3426 46ZM43.7066 38.98L42.4946 42.58H44.9186L43.7306 38.98H43.7066Z" fill="#3156A6"/>
  <path d="M48.9016 46H50.3416V42.34H54.3016V46H55.7416V37.6H54.3016V41.02H50.3416V37.6H48.9016V46Z" fill="#3156A6"/>
  <path fill-rule="evenodd" clip-rule="evenodd" d="M69.5946 46.12C71.8386 46.12 73.3146 44.644 73.3146 41.992V41.488C73.3146 38.944 71.8506 37.48 69.5946 37.48C67.3506 37.48 65.8746 38.956 65.8746 41.488V41.992C65.8746 44.656 67.3386 46.12 69.5946 46.12ZM69.5946 44.8C68.2746 44.8 67.3866 43.912 67.3866 41.992V41.488C67.3866 39.664 68.2506 38.8 69.5946 38.8C70.9026 38.8 71.8026 39.7 71.8026 41.488V41.992C71.8026 43.936 70.9266 44.8 69.5946 44.8Z" fill="#3156A6"/>
  <path fill-rule="evenodd" clip-rule="evenodd" d="M78.1713 46H75.0513V37.6H77.9313C80.0913 37.6 80.9313 38.44 80.9313 39.88C80.9313 40.636 80.5713 41.236 79.8633 41.62V41.644C80.7153 42.004 81.1713 42.664 81.1713 43.576C81.1713 45.16 80.3313 46 78.1713 46ZM79.4193 40C79.4193 39.304 79.0353 38.92 77.8713 38.92H76.4913V41.08H77.8713C79.0353 41.08 79.4193 40.696 79.4193 40ZM79.6593 43.48C79.6593 42.664 79.2753 42.28 78.1113 42.28H76.4913V44.68H78.1113C79.2753 44.68 79.6593 44.296 79.6593 43.48Z" fill="#3156A6"/>
  <path fill-rule="evenodd" clip-rule="evenodd" d="M86.2699 46.12C88.5139 46.12 89.9899 44.644 89.9899 41.992V41.488C89.9899 38.944 88.5259 37.48 86.2699 37.48C84.0259 37.48 82.5499 38.956 82.5499 41.488V41.992C82.5499 44.656 84.0139 46.12 86.2699 46.12ZM86.2699 44.8C84.9499 44.8 84.0619 43.912 84.0619 41.992V41.488C84.0619 39.664 84.9259 38.8 86.2699 38.8C87.5779 38.8 88.4779 39.7 88.4779 41.488V41.992C88.4779 43.936 87.6019 44.8 86.2699 44.8Z" fill="#3156A6"/>
  <path d="M4.37461 58.12C6.57061 58.12 8.03461 56.656 8.03461 53.992V53.488C8.03461 50.956 6.55861 49.48 4.37461 49.48C2.39461 49.48 1.19461 50.68 0.954611 52.24H2.51461C2.75461 51.412 3.35461 50.8 4.37461 50.8C5.65861 50.8 6.41461 51.604 6.51061 53.128H3.35461V54.352H6.51061C6.42661 55.996 5.62261 56.8 4.37461 56.8C3.37861 56.8 2.77861 56.2 2.53861 55.24H0.954611C1.19461 56.932 2.38261 58.12 4.37461 58.12Z" fill="#3156A6"/>
  <path fill-rule="evenodd" clip-rule="evenodd" d="M14.6909 58.108H13.2509V57.58C10.7909 57.58 9.35086 56.14 9.35086 53.932V53.668C9.35086 51.484 10.8149 50.02 13.2509 50.02V49.492H14.6909V50.02C17.1509 50.02 18.5909 51.46 18.5909 53.668V53.932C18.5909 56.116 17.1269 57.58 14.6909 57.58V58.108ZM17.0789 53.932V53.668C17.0789 52.192 16.2269 51.34 14.6909 51.34V56.26C16.2509 56.26 17.0789 55.432 17.0789 53.932ZM10.8629 53.668V53.932C10.8629 55.408 11.7149 56.26 13.2509 56.26V51.34C11.6909 51.34 10.8629 52.168 10.8629 53.668Z" fill="#3156A6"/>
  <path fill-rule="evenodd" clip-rule="evenodd" d="M23.6862 58.108H25.1262V57.58C27.5622 57.58 29.0262 56.116 29.0262 53.932V53.668C29.0262 51.46 27.5862 50.02 25.1262 50.02V49.492H23.6862V50.02C21.2502 50.02 19.7862 51.484 19.7862 53.668V53.932C19.7862 56.14 21.2262 57.58 23.6862 57.58V58.108ZM27.5142 53.668V53.932C27.5142 55.432 26.6862 56.26 25.1262 56.26V51.34C26.6622 51.34 27.5142 52.192 27.5142 53.668ZM21.2982 53.932V53.668C21.2982 52.168 22.1262 51.34 23.6862 51.34V56.26C22.1502 56.26 21.2982 55.408 21.2982 53.932Z" fill="#3156A6"/>
  <path d="M36.0415 58H30.6415V49.6H36.0415V50.92H32.0815V53.02H35.3215V54.34H32.0815V56.68H36.0415V58Z" fill="#3156A6"/>
  <path d="M37.7135 58H39.1535V54.34H39.9935L42.5615 58H44.3135L41.1335 53.608L44.0735 49.6H42.4175L39.9935 53.02H39.1535V49.6H37.7135V58Z" fill="#3156A6"/>
  <path d="M49.0479 58H47.6079V50.92H45.0279V49.6H51.6279V50.92H49.0479V58Z" fill="#3156A6"/>
  <path d="M53.006 58H54.95L58.382 51.4H58.406V58H59.846V49.6H57.902L54.47 56.2H54.446V49.6H53.006V58Z" fill="#3156A6"/>
  <path fill-rule="evenodd" clip-rule="evenodd" d="M65.0027 58H61.8827V49.6H64.7627C66.9227 49.6 67.7627 50.44 67.7627 51.88C67.7627 52.636 67.4027 53.236 66.6947 53.62V53.644C67.5467 54.004 68.0027 54.664 68.0027 55.576C68.0027 57.16 67.1627 58 65.0027 58ZM66.2507 52C66.2507 51.304 65.8667 50.92 64.7027 50.92H63.3227V53.08H64.7027C65.8667 53.08 66.2507 52.696 66.2507 52ZM66.4907 55.48C66.4907 54.664 66.1067 54.28 64.9427 54.28H63.3227V56.68H64.9427C66.1067 56.68 66.4907 56.296 66.4907 55.48Z" fill="#3156A6"/>
  <path d="M69.6813 58H71.1213V54.34H75.0813V58H76.5213V49.6H75.0813V53.02H71.1213V49.6H69.6813V58Z" fill="#3156A6"/>
  <path fill-rule="evenodd" clip-rule="evenodd" d="M85.698 53.992C85.698 56.644 84.2221 58.12 81.978 58.12C79.7221 58.12 78.258 56.656 78.258 53.992V53.488C78.258 50.956 79.734 49.48 81.978 49.48C84.234 49.48 85.698 50.944 85.698 53.488V53.992ZM79.77 53.992C79.77 55.912 80.658 56.8 81.978 56.8C83.31 56.8 84.186 55.936 84.186 53.992V53.488C84.186 51.7 83.286 50.8 81.978 50.8C80.634 50.8 79.77 51.664 79.77 53.488V53.992Z" fill="#3156A6"/>
  <path d="M90.7948 58.12C92.7868 58.12 93.9748 56.932 94.2148 55.24H92.6308C92.3908 56.2 91.7908 56.8 90.7948 56.8C89.5468 56.8 88.6468 55.9 88.6468 53.992V53.488C88.6468 51.676 89.5228 50.8 90.7948 50.8C91.8148 50.8 92.4148 51.4 92.6548 52.24H94.2148C93.9748 50.68 92.7748 49.48 90.7948 49.48C88.6108 49.48 87.1348 50.956 87.1348 53.488V53.992C87.1348 56.656 88.5988 58.12 90.7948 58.12Z" fill="#3156A6"/>
  <path d="M98.8277 58H97.3877V50.92H94.8077V49.6H101.408V50.92H98.8277V58Z" fill="#3156A6"/>
  <path d="M102.786 58H104.73L108.162 51.4H108.186V58H109.626V49.6H107.682L104.25 56.2H104.226V49.6H102.786V58Z" fill="#3156A6"/>
</svg>
