<svg width="140" height="40" viewBox="0 0 140 40" fill="none" xmlns="http://www.w3.org/2000/svg">
  <path d="M48.5991 34H49.5591V31.56H50.1191L51.8311 34H52.9991L50.8791 31.072L52.8391 28.4H51.7351L50.1191 30.68H49.5591V28.4H48.5991V34ZM53.3934 34.08H53.4734C55.2174 34.08 55.3134 32.48 55.3134 30.96V29.28H57.2334V34H58.1934V28.4H54.3534V30.96C54.3534 32.2 54.3374 33.2 53.4734 33.2H53.3934V34.08ZM60.1801 34H61.1881L63.6281 28.4H62.6201L61.3881 31.36H61.3721L59.9801 28.4H58.9081L60.8761 32.4L60.1801 34ZM64.3491 34H66.3891C67.7411 34 68.4291 33.312 68.4291 32.224C68.4291 31.12 67.7571 30.448 66.3891 30.448H65.3091V29.28H68.0291V28.4H64.3491V34ZM65.3091 33.12V31.328H66.3491C67.0531 31.328 67.4211 31.696 67.4211 32.224C67.4211 32.768 67.0691 33.12 66.3491 33.12H65.3091Z" fill="#464E5F"/>
  <path fill-rule="evenodd" clip-rule="evenodd" d="M51.6488 13.09H52.8488V12.65C54.8788 12.65 56.0988 11.43 56.0988 9.61V9.39C56.0988 7.55 54.8988 6.35 52.8488 6.35V5.91H51.6488V6.35C49.6188 6.35 48.3988 7.57 48.3988 9.39V9.61C48.3988 11.45 49.5988 12.65 51.6488 12.65V13.09ZM54.8388 9.39V9.61C54.8388 10.86 54.1488 11.55 52.8488 11.55V7.45C54.1288 7.45 54.8388 8.16 54.8388 9.39ZM49.6588 9.61V9.39C49.6588 8.14 50.3488 7.45 51.6488 7.45V11.55C50.3688 11.55 49.6588 10.84 49.6588 9.61Z" fill="#3156A6"/>
  <path d="M57.4449 13H59.0649L61.9249 7.5H61.9449V13H63.1449V6H61.5249L58.6649 11.5H58.6449V6H57.4449V13Z" fill="#3156A6"/>
  <path d="M64.8422 13H66.0422V9.95H69.3422V13H70.5422V6H69.3422V8.85H66.0422V6H64.8422V13Z" fill="#3156A6"/>
  <path fill-rule="evenodd" clip-rule="evenodd" d="M71.6395 13H72.8394L73.4295 11.25H76.1795L76.7595 13H78.0395L75.5395 6H74.1395L71.6395 13ZM74.8094 7.15H74.8295L75.8195 10.15H73.7994L74.8094 7.15Z" fill="#3156A6"/>
  <path d="M79.1387 13H80.3387V9.95H83.6387V13H84.8387V6H83.6387V8.85H80.3387V6H79.1387V13Z" fill="#3156A6"/>
  <path d="M89.3359 13.1C90.9959 13.1 91.9859 12.11 92.1859 10.7H90.8659C90.6659 11.5 90.1659 12 89.3359 12C88.2959 12 87.5459 11.25 87.5459 9.66V9.24C87.5459 7.73 88.2759 7 89.3359 7C90.1859 7 90.6859 7.5 90.8859 8.2H92.1859C91.9859 6.9 90.9859 5.9 89.3359 5.9C87.5159 5.9 86.2859 7.13 86.2859 9.24V9.66C86.2859 11.88 87.5059 13.1 89.3359 13.1Z" fill="#3156A6"/>
  <path fill-rule="evenodd" clip-rule="evenodd" d="M96.3828 13.1C98.2528 13.1 99.4828 11.87 99.4828 9.66V9.24C99.4828 7.12 98.2628 5.9 96.3828 5.9C94.5128 5.9 93.2828 7.13 93.2828 9.24V9.66C93.2828 11.88 94.5028 13.1 96.3828 13.1ZM96.3828 12C95.2828 12 94.5428 11.26 94.5428 9.66V9.24C94.5428 7.72 95.2628 7 96.3828 7C97.4728 7 98.2228 7.75 98.2228 9.24V9.66C98.2228 11.28 97.4928 12 96.3828 12Z" fill="#3156A6"/>
  <path fill-rule="evenodd" clip-rule="evenodd" d="M100.93 13H103.53C105.33 13 106.03 12.3 106.03 10.98C106.03 10.22 105.65 9.67 104.94 9.37V9.35C105.53 9.03 105.83 8.53 105.83 7.9C105.83 6.7 105.13 6 103.33 6H100.93V13ZM103.28 7.1C104.25 7.1 104.57 7.42 104.57 8C104.57 8.58 104.25 8.9 103.28 8.9H102.13V7.1H103.28ZM103.48 9.9C104.45 9.9 104.77 10.22 104.77 10.9C104.77 11.58 104.45 11.9 103.48 11.9H102.13V9.9H103.48Z" fill="#3156A6"/>
  <path fill-rule="evenodd" clip-rule="evenodd" d="M110.279 13.1C112.149 13.1 113.379 11.87 113.379 9.66V9.24C113.379 7.12 112.159 5.9 110.279 5.9C108.409 5.9 107.179 7.13 107.179 9.24V9.66C107.179 11.88 108.399 13.1 110.279 13.1ZM110.279 12C109.179 12 108.439 11.26 108.439 9.66V9.24C108.439 7.72 109.159 7 110.279 7C111.369 7 112.119 7.75 112.119 9.24V9.66C112.119 11.28 111.389 12 110.279 12Z" fill="#3156A6"/>
  <path d="M114.826 13H116.446L119.306 7.5H119.326V13H120.526V6H118.906L116.046 11.5H116.026V6H114.826V13Z" fill="#3156A6"/>
  <path d="M117.676 5.4C118.686 5.4 119.226 4.86 119.226 4H118.326C118.326 4.45 118.076 4.7 117.676 4.7C117.276 4.7 117.026 4.45 117.026 4H116.126C116.126 4.86 116.666 5.4 117.676 5.4Z" fill="#3156A6"/>
  <path d="M51.2488 23.1C53.0788 23.1 54.2988 21.88 54.2988 19.66V19.24C54.2988 17.13 53.0688 15.9 51.2488 15.9C49.5988 15.9 48.5988 16.9 48.3988 18.2H49.6988C49.8988 17.51 50.3988 17 51.2488 17C52.3188 17 52.9488 17.67 53.0288 18.94H50.3988V19.96H53.0288C52.9588 21.33 52.2888 22 51.2488 22C50.4188 22 49.9188 21.5 49.7188 20.7H48.3988C48.5988 22.11 49.5888 23.1 51.2488 23.1Z" fill="#3156A6"/>
  <path fill-rule="evenodd" clip-rule="evenodd" d="M58.6457 23.09H59.8457V22.65C61.8757 22.65 63.0957 21.43 63.0957 19.61V19.39C63.0957 17.55 61.8957 16.35 59.8457 16.35V15.91H58.6457V16.35C56.6157 16.35 55.3957 17.57 55.3957 19.39V19.61C55.3957 21.45 56.5957 22.65 58.6457 22.65V23.09ZM61.8357 19.39V19.61C61.8357 20.86 61.1457 21.55 59.8457 21.55V17.45C61.1257 17.45 61.8357 18.16 61.8357 19.39ZM56.6557 19.61V19.39C56.6557 18.14 57.3457 17.45 58.6457 17.45V21.55C57.3657 21.55 56.6557 20.84 56.6557 19.61Z" fill="#3156A6"/>
  <path fill-rule="evenodd" clip-rule="evenodd" d="M67.3418 23.09H68.5418V22.65C70.5718 22.65 71.7918 21.43 71.7918 19.61V19.39C71.7918 17.55 70.5918 16.35 68.5418 16.35V15.91H67.3418V16.35C65.3118 16.35 64.0918 17.57 64.0918 19.39V19.61C64.0918 21.45 65.2918 22.65 67.3418 22.65V23.09ZM70.5318 19.39V19.61C70.5318 20.86 69.8418 21.55 68.5418 21.55V17.45C69.8218 17.45 70.5318 18.16 70.5318 19.39ZM65.3518 19.61V19.39C65.3518 18.14 66.0418 17.45 67.3418 17.45V21.55C66.0618 21.55 65.3518 20.84 65.3518 19.61Z" fill="#3156A6"/>
  <path d="M73.1379 23H77.6379V21.9H74.3379V19.95H77.0379V18.85H74.3379V17.1H77.6379V16H73.1379V23Z" fill="#3156A6"/>
  <path d="M79.0312 23H80.2312V19.95H80.9312L83.0712 23H84.5312L81.8812 19.34L84.3312 16H82.9512L80.9312 18.85H80.2312V16H79.0312V23Z" fill="#3156A6"/>
  <path d="M87.2766 23H88.4766V17.1H90.6266V16H85.1266V17.1H87.2766V23Z" fill="#3156A6"/>
  <path d="M91.775 23H93.395L96.255 17.5H96.275V23H97.475V16H95.855L92.995 21.5H92.975V16H91.775V23Z" fill="#3156A6"/>
  <path fill-rule="evenodd" clip-rule="evenodd" d="M99.1723 23H101.772C103.572 23 104.272 22.3 104.272 20.98C104.272 20.22 103.892 19.67 103.182 19.37V19.35C103.772 19.03 104.072 18.53 104.072 17.9C104.072 16.7 103.372 16 101.572 16H99.1723V23ZM101.522 17.1C102.492 17.1 102.812 17.42 102.812 18C102.812 18.58 102.492 18.9 101.522 18.9H100.372V17.1H101.522ZM101.722 19.9C102.692 19.9 103.012 20.22 103.012 20.9C103.012 21.58 102.692 21.9 101.722 21.9H100.372V19.9H101.722Z" fill="#3156A6"/>
  <path d="M105.671 23H106.871V19.95H110.171V23H111.371V16H110.171V18.85H106.871V16H105.671V23Z" fill="#3156A6"/>
  <path fill-rule="evenodd" clip-rule="evenodd" d="M115.918 23.1C117.788 23.1 119.018 21.87 119.018 19.66V19.24C119.018 17.12 117.798 15.9 115.918 15.9C114.048 15.9 112.818 17.13 112.818 19.24V19.66C112.818 21.88 114.038 23.1 115.918 23.1ZM115.918 22C114.818 22 114.078 21.26 114.078 19.66V19.24C114.078 17.72 114.798 17 115.918 17C117.008 17 117.758 17.75 117.758 19.24V19.66C117.758 21.28 117.028 22 115.918 22Z" fill="#3156A6"/>
  <path d="M123.266 23.1C124.926 23.1 125.916 22.11 126.116 20.7H124.796C124.596 21.5 124.096 22 123.266 22C122.226 22 121.476 21.25 121.476 19.66V19.24C121.476 17.73 122.206 17 123.266 17C124.116 17 124.616 17.5 124.816 18.2H126.116C125.916 16.9 124.916 15.9 123.266 15.9C121.446 15.9 120.216 17.13 120.216 19.24V19.66C120.216 21.88 121.436 23.1 123.266 23.1Z" fill="#3156A6"/>
  <path d="M128.76 23H129.96V17.1H132.11V16H126.61V17.1H128.76V23Z" fill="#3156A6"/>
  <path d="M133.258 23H134.878L137.738 17.5H137.758V23H138.958V16H137.338L134.478 21.5H134.458V16H133.258V23Z" fill="#3156A6"/>
  <path fill-rule="evenodd" clip-rule="evenodd" d="M35.158 22.5456C36.4401 24.6811 35.5278 27.4579 33.2285 28.4156L18.5051 34.5506C16.5802 35.3535 14.4051 35.3069 12.5159 34.4245L7.53752 32.1012C5.57586 31.1846 4.66911 28.8961 5.47364 26.8848L13.4937 6.83468C14.3655 4.6562 16.8874 3.66043 19.0122 4.65037L24.4685 7.19689C25.8095 7.82192 26.9315 8.83473 27.6916 10.1027L35.158 22.5456ZM18.3778 6.00963C17.0327 5.38325 15.4378 6.01395 14.8863 7.39199L14.6176 8.06374L6.86635 27.4419C6.35755 28.7139 6.93079 30.162 8.17247 30.7422L13.1505 33.0654C13.8148 33.3757 14.5236 33.5565 15.2398 33.6068L22.1648 16.317L24.9889 9.26607C24.6345 8.98744 24.2477 8.74889 23.8348 8.55645L18.3778 6.00963ZM23.2885 17.5458L26.1287 10.4544C26.2265 10.5899 26.3187 10.7298 26.405 10.8739L33.8719 23.3176C34.6831 24.6687 34.1056 26.4254 32.6516 27.031L17.9282 33.166C17.5946 33.3052 17.2513 33.4125 16.9033 33.4877L23.2885 17.5458Z" fill="#3156A6"/>
</svg>
