<svg xmlns="http://www.w3.org/2000/svg" xmlns:xlink="http://www.w3.org/1999/xlink"><symbol id="icon__arrow_circle_right" viewBox="0 0 24 24"><path clip-rule="evenodd" d="M12 21v0a9 9 0 01-9-9v0a9 9 0 019-9v0a9 9 0 019 9v0a9 9 0 01-9 9z" stroke="#464E5F" stroke-width="1.5" stroke-linecap="round" stroke-linejoin="round"/><path d="M16 12H8M13 9l3 3-3 3" stroke="#464E5F" stroke-width="1.5" stroke-linecap="round" stroke-linejoin="round"/></symbol><symbol id="icon__arrow_down" viewBox="0 0 24 24"><path d="M8 11l4 4 4-4" stroke="#464E5F" stroke-width="1.5" stroke-linecap="round" stroke-linejoin="round"/></symbol><symbol id="icon__arrow_left" viewBox="0 0 24 24"><path d="M13 8l-4 4 4 4" stroke="#464E5F" stroke-width="1.5" stroke-linecap="round" stroke-linejoin="round"/></symbol><symbol id="icon__arrow_right" viewBox="0 0 24 24"><path d="M11 16l4-4-4-4" stroke="#464E5F" stroke-width="1.5" stroke-linecap="round" stroke-linejoin="round"/></symbol><symbol id="icon__atm" viewBox="0 0 24 24"><path d="M12 2.996a6.503 6.503 0 110 13.006 6.503 6.503 0 010-13.006M6.998 16.002h10.004" stroke="#464E5F" stroke-width="1.5" stroke-linecap="round" stroke-linejoin="round"/><path d="M18.003 12h1a2 2 0 012 2v5.003a2 2 0 01-2 2H4.997a2 2 0 01-2-2V14a2 2 0 012-2.001h1" stroke="#464E5F" stroke-width="1.5" stroke-linecap="round" stroke-linejoin="round"/><path d="M10 10l2 2 2-2M12 6.998V12" stroke="#464E5F" stroke-width="1.5" stroke-linecap="round" stroke-linejoin="round"/></symbol><symbol id="icon__avatar" viewBox="0 0 24 24"><circle cx="12" cy="8.5" r="2.5" stroke="#464E5F" stroke-width="1.5" stroke-linecap="round" stroke-linejoin="round"/><path d="M7 17v-1a2.5 2.5 0 012.5-2.5h5A2.5 2.5 0 0117 16v1" stroke="#464E5F" stroke-width="1.5" stroke-linecap="round" stroke-linejoin="round"/><rect x="3" y="3" width="18" height="18" rx="2" stroke="#464E5F" stroke-width="1.5" stroke-linecap="round" stroke-linejoin="round"/><path d="M21 17H3" stroke="#464E5F" stroke-width="1.5" stroke-linecap="round" stroke-linejoin="round"/></symbol><symbol id="icon__bank" viewBox="0 0 24 24"><path d="M15.645 8.999v8.003M20.003 17.002V9M14 20.003h8.004v-1l-1-2H14M6.498 12a4.502 4.502 0 110 9.004 4.502 4.502 0 010-9.004M4.997 16.502h3.001M6.498 18.003V15" stroke="#464E5F" stroke-width="1.5" stroke-linecap="round" stroke-linejoin="round"/><path clip-rule="evenodd" d="M3.997 8.999h18.007V5.925L13 1.995l-9.003 3.93V9z" stroke="#464E5F" stroke-width="1.5" stroke-linecap="round" stroke-linejoin="round"/></symbol><symbol id="icon__bars" viewBox="0 0 24 24"><path d="M3 3v18" stroke="#464E5F" stroke-width="1.5" stroke-linecap="round" stroke-linejoin="round"/><path clip-rule="evenodd" d="M3 14.333h12V18a1 1 0 01-1 1H3v-4.667z" stroke="#464E5F" stroke-width="1.5" stroke-linecap="round" stroke-linejoin="round"/><path clip-rule="evenodd" d="M3 9.667h17a1 1 0 011 1v2.667a1 1 0 01-1 1H3V9.667zM3 5h14a1 1 0 011 1v3.667H3V5z" stroke="#464E5F" stroke-width="1.5" stroke-linecap="round" stroke-linejoin="round"/></symbol><symbol id="icon__bell" viewBox="0 0 24 24"><path d="M13.25 17.5c-.8.333-1.7.333-2.5 0M12 6v1M15.5 10.847V10.5A3.5 3.5 0 0012 7v0a3.5 3.5 0 00-3.5 3.5v.347M15.5 10.847a5.625 5.625 0 001.433 3.736.247.247 0 01-.176.417H7.243a.247.247 0 01-.176-.417A5.625 5.625 0 008.5 10.847" stroke="#464E5F" stroke-width="1.5" stroke-linecap="round" stroke-linejoin="round"/><path clip-rule="evenodd" d="M2.996 16.002V7.998a5.002 5.002 0 015.002-5.002h8.004a5.002 5.002 0 015.002 5.002v8.004a5.002 5.002 0 01-5.002 5.002H7.998a5.002 5.002 0 01-5.002-5.002z" stroke="#464E5F" stroke-width="1.5" stroke-linecap="round" stroke-linejoin="round"/></symbol><symbol id="icon__calendar" viewBox="0 0 24 24"><path d="M2.996 5.996a3 3 0 013-3h12.008a3 3 0 013 3v12.008a3 3 0 01-3 3H5.996a3 3 0 01-3-3V5.996zM21.004 7.998H2.996M17.302 11.5a.05.05 0 11-.05-.05M17.252 11.45a.05.05 0 01.05.05M13.8 11.5a.05.05 0 11-.05-.05M13.75 11.45a.05.05 0 01.05.05M10.298 11.5a.05.05 0 11-.05-.05M10.248 11.45a.05.05 0 01.05.05M6.797 14.501a.05.05 0 11-.05-.05M6.747 14.451a.05.05 0 01.05.05M10.298 14.501a.05.05 0 11-.05-.05M10.248 14.451a.05.05 0 01.05.05M13.8 14.501a.05.05 0 11-.05-.05M13.75 14.451a.05.05 0 01.05.05M17.302 14.501a.05.05 0 11-.05-.05M17.252 14.451a.05.05 0 01.05.05M17.302 17.502a.05.05 0 11-.05-.05M17.252 17.452a.05.05 0 01.05.05M13.8 17.502a.05.05 0 11-.05-.05M13.75 17.452a.05.05 0 01.05.05M10.298 17.502a.05.05 0 11-.05-.05M10.248 17.452a.05.05 0 01.05.05M6.797 17.502a.05.05 0 11-.05-.05M6.747 17.452a.05.05 0 01.05.05" stroke="#464E5F" stroke-width="1.5" stroke-linecap="round" stroke-linejoin="round"/></symbol><symbol id="icon__car" viewBox="0 0 24 24"><path d="M21 16.5V20a1 1 0 01-1 1h-2a1 1 0 01-1-1v-1.5M7 18.5V20a1 1 0 01-1 1H4a1 1 0 01-1-1v-3.5" stroke="#464E5F" stroke-width="1.5" stroke-linecap="round" stroke-linejoin="round"/><path clip-rule="evenodd" d="M3 16.5v-2.755c0-.796.316-1.56.879-2.123L5 10.5h14l1.121 1.121c.563.563.879 1.326.879 2.122V16.5a2 2 0 01-2 2H5a2 2 0 01-2-2z" stroke="#464E5F" stroke-width="1.5" stroke-linecap="round" stroke-linejoin="round"/><path d="M21 9.5l-2 .5M5 10l-2-.5M5 10.5v-.506l.836-3.137A2.501 2.501 0 018.253 5h7.582a2.5 2.5 0 012.432 1.92L19 9.994v.506M6 14.5h2M16 14.5h2" stroke="#464E5F" stroke-width="1.5" stroke-linecap="round" stroke-linejoin="round"/></symbol><symbol id="icon__card-bill" viewBox="0 0 24 24"><path d="M16 5h4.5M6 17v-3M17.5 21H5a2 2 0 01-2-2v-1a1 1 0 011-1h11a1 1 0 011 1v1.5a1.5 1.5 0 001.5 1.5v0a1.5 1.5 0 001.5-1.5v-13A1.5 1.5 0 0120.5 5v0A1.5 1.5 0 0122 6.5V9a1 1 0 01-1 1h-2" stroke="#464E5F" stroke-width="1.5" stroke-linecap="round" stroke-linejoin="round"/><path clip-rule="evenodd" d="M3 5v4a2 2 0 002 2h6a2 2 0 002-2V5a2 2 0 00-2-2H5a2 2 0 00-2 2z" stroke="#464E5F" stroke-width="1.5" stroke-linecap="round" stroke-linejoin="round"/><path d="M13 6.5H3" stroke="#464E5F" stroke-width="1.5" stroke-linecap="round" stroke-linejoin="round"/></symbol><symbol id="icon__chart" viewBox="0 0 24 24"><path d="M7.498 13.25h9.004M12 13.25V7.249M15.001 13.25V9.25M16.002 21.004l-1-4.002M7.998 21.004l1-4.002" stroke="#464E5F" stroke-width="1.5" stroke-linecap="round" stroke-linejoin="round"/><path clip-rule="evenodd" d="M18.928 17.002H5.072a2.076 2.076 0 01-2.076-2.076V5.072c0-1.146.93-2.076 2.076-2.076h13.855a2.076 2.076 0 012.077 2.076v9.853a2.076 2.076 0 01-2.076 2.077z" stroke="#464E5F" stroke-width="1.5" stroke-linecap="round" stroke-linejoin="round"/><path d="M8.999 13.25v-3" stroke="#464E5F" stroke-width="1.5" stroke-linecap="round" stroke-linejoin="round"/></symbol><symbol id="icon__check" viewBox="0 0 24 24"><path clip-rule="evenodd" d="M12 21v0a9 9 0 01-9-9v0a9 9 0 019-9v0a9 9 0 019 9v0a9 9 0 01-9 9z" stroke="#464E5F" stroke-width="1.5" stroke-linecap="round" stroke-linejoin="round"/><path d="M16 10l-5 5-3-3" stroke="#464E5F" stroke-width="1.5" stroke-linecap="round" stroke-linejoin="round"/></symbol><symbol id="icon__coin" viewBox="0 0 24 24"><path d="M11 3.997l4.252 2.551c.49.294.885.721 1.14 1.232l.293.585a3 3 0 01.317 1.342v1.71" stroke="#464E5F" stroke-width="1.5" stroke-linecap="round" stroke-linejoin="round"/><path d="M10.064 15.36a4.934 4.934 0 00-.065.642 5.046 5.046 0 102.013-3.99" stroke="#464E5F" stroke-width="1.5" stroke-linecap="round" stroke-linejoin="round"/><path d="M3.997 5.997l2.083 5.765c.29.804.831 1.495 1.543 1.97l4.49 2.993c.653.436 1.522.35 2.077-.205v0a1.646 1.646 0 000-2.329L12 12v-2" stroke="#464E5F" stroke-width="1.5" stroke-linecap="round" stroke-linejoin="round"/></symbol><symbol id="icon__coins" viewBox="0 0 24 24"><path clip-rule="evenodd" d="M6 21H4a1 1 0 01-1-1v-6a1 1 0 011-1h2a1 1 0 011 1v6a1 1 0 01-1 1z" stroke="#464E5F" stroke-width="1.5" stroke-linecap="round" stroke-linejoin="round"/><path d="M13 17h2.333c.433 0 .854-.14 1.2-.4l2.416-1.812a1.515 1.515 0 011.98.141v0a1.514 1.514 0 010 2.142l-2.073 2.073a4.004 4.004 0 01-2.044 1.094l-2.93.586a3.999 3.999 0 01-1.755-.042l-2.65-.662a3.957 3.957 0 00-.97-.12H7" stroke="#464E5F" stroke-width="1.5" stroke-linecap="round" stroke-linejoin="round"/><path d="M13 17h1.485c.837 0 1.515-.678 1.515-1.515v-.303c0-.695-.473-1.301-1.147-1.47l-2.292-.572a4.705 4.705 0 00-1.14-.14v0a4.69 4.69 0 00-2.604.789L7 14.999M17.169 5.155a2.838 2.838 0 11-4.014 4.014 2.838 2.838 0 014.014-4.014" stroke="#464E5F" stroke-width="1.5" stroke-linecap="round" stroke-linejoin="round"/><path d="M14.631 4.375a2.816 2.816 0 00-.787-1.544 2.838 2.838 0 10-1.476 4.793" stroke="#464E5F" stroke-width="1.5" stroke-linecap="round" stroke-linejoin="round"/></symbol><symbol id="icon__comment" viewBox="0 0 24 24"><path d="M21 11.291c0 4.539-4.048 8.182-9 8.182a9.896 9.896 0 01-1.869-.179M6.599 17.826C4.42 16.336 3 13.974 3 11.291M6.599 17.826c-.001.854.001 2.006.001 3.215" stroke="#464E5F" stroke-width="1.5" stroke-linecap="round" stroke-linejoin="round"/><path d="M3 11.291C3 6.752 7.048 3.11 12 3.11s9 3.643 9 8.182M10.13 19.29L6.6 21.04" stroke="#464E5F" stroke-width="1.5" stroke-linecap="round" stroke-linejoin="round"/><path d="M12.177 11.323a.25.25 0 11-.354.354.25.25 0 01.354-.354M16.177 11.323a.25.25 0 11-.354.354.25.25 0 01.354-.354M8.177 11.323a.25.25 0 11-.354.354.25.25 0 01.354-.354" stroke="#464E5F" stroke-width="1.5" stroke-linecap="round" stroke-linejoin="round"/></symbol><symbol id="icon__copy" viewBox="0 0 24 24"><path d="M16.265 13.422H8.788a2 2 0 01-2.001-2.001V8.683" stroke="#464E5F" stroke-width="1.5" stroke-linecap="round" stroke-linejoin="round"/><path d="M11 18.003H4.997a2 2 0 01-2-2.001V4.997a2 2 0 012-2H12a2 2 0 012 2v1" stroke="#464E5F" stroke-width="1.5" stroke-linecap="round" stroke-linejoin="round"/><path d="M11 11V7.998a2 2 0 012-2h6.003a2 2 0 012 2v11.005a2 2 0 01-2 2H13a2 2 0 01-2-2v-3.001" stroke="#464E5F" stroke-width="1.5" stroke-linecap="round" stroke-linejoin="round"/><path d="M14.369 15.317l1.896-1.895-1.896-1.896" stroke="#464E5F" stroke-width="1.5" stroke-linecap="round" stroke-linejoin="round"/></symbol><symbol id="icon__course" viewBox="0 0 24 24"><path d="M21.004 12v2a3.001 3.001 0 01-3.002 3.002H5.998a3.001 3.001 0 01-3-3.001V5.998a3.001 3.001 0 013-3.002H9"/><path d="M14.025 6.918v2.328c0 .511.289.979.746 1.207l.523.262c.76.38 1.654.38 2.415 0l.522-.261a1.35 1.35 0 00.746-1.208V6.918"/><path clip-rule="evenodd" d="M12.415 6.111l3.086 1.542a2.246 2.246 0 002.006 0l3.083-1.542a.747.747 0 000-1.336L17.5 3.233a2.24 2.24 0 00-2.005 0l-3.083 1.542a.747.747 0 00.003 1.336z"/><path d="M21.004 5.444v1.801M14 17.002l.501 4.002M10 17.002l-.501 4.002M7.198 21.004h9.604"/></symbol><symbol id="icon__courses" viewBox="0 0 24 24"><path clip-rule="evenodd" d="M14.167 6.167H13V5a2 2 0 012-2h1.167v1.167a2 2 0 01-2 2z"/><path d="M13 13a3.905 3.905 0 01-3.905-3.905M9.095 9.095c0-1.704.781-2.929 2.343-2.929M13 13a3.905 3.905 0 003.905-3.905M16.905 9.095c0-1.704-.781-2.929-2.343-2.929M14.562 6.167c-.781 0-1.224.25-1.562.25-.338 0-.781-.25-1.562-.25M20.625 13H7.375a2 2 0 100 4h13.25M20.12 13v4M18.625 17H5.375a2 2 0 100 4h13.25M18.12 17v4"/></symbol><symbol id="icon__cross" viewBox="0 0 24 24"><path d="M18.5 5.5l-13 13M18.5 18.5l-13-13" stroke="#464E5F" stroke-width="1.5" stroke-linecap="round" stroke-linejoin="round"/></symbol><symbol id="icon__dashboard" viewBox="0 0 24 24"><path clip-rule="evenodd" d="M7.75 12H5a2 2 0 01-2-2V5a2 2 0 012-2h2.75a2 2 0 012 2v5a2 2 0 01-2 2zM7.75 21H5a2 2 0 01-2-2v-.5a2 2 0 012-2h2.75a2 2 0 012 2v.5a2 2 0 01-2 2zM16.25 12H19a2 2 0 012 2v5a2 2 0 01-2 2h-2.75a2 2 0 01-2-2v-5a2 2 0 012-2zM16.25 3H19a2 2 0 012 2v.5a2 2 0 01-2 2h-2.75a2 2 0 01-2-2V5a2 2 0 012-2z" stroke="#464E5F" stroke-width="1.5" stroke-linecap="round" stroke-linejoin="round"/></symbol><symbol id="icon__default" viewBox="0 0 24 24"><path stroke="#464E5F" stroke-width="1.5" d="M2.25 6.25h3.5v3.5h-3.5zM2.25 14.25h3.5v3.5h-3.5zM6.25 2.25h3.5v3.5h-3.5zM6.25 10.25h3.5v3.5h-3.5zM6.25 18.25h3.5v3.5h-3.5zM10.25 6.25h3.5v3.5h-3.5zM10.25 14.25h3.5v3.5h-3.5zM14.25 2.25h3.5v3.5h-3.5zM14.25 10.25h3.5v3.5h-3.5zM14.25 18.25h3.5v3.5h-3.5zM18.25 6.25h3.5v3.5h-3.5zM18.25 14.25h3.5v3.5h-3.5z"/></symbol><symbol id="icon__disabled" viewBox="0 0 16 16"><circle cx="8" cy="8" r="3.25" stroke="#464E5F" stroke-width="1.5"/></symbol><symbol id="icon__edit" viewBox="0 0 16 16"><path clip-rule="evenodd" d="M3.529 10.413l6.884-6.884c.26-.26.682-.26.942 0l1.117 1.117c.26.26.26.682 0 .942l-6.885 6.883a.663.663 0 01-.47.196H3.333v-1.784c0-.176.07-.346.196-.47z" stroke="#464E5F" stroke-width="1.5" stroke-linecap="round" stroke-linejoin="round"/><path d="M9.167 4.773l2.06 2.06" stroke="#464E5F" stroke-width="1.5" stroke-linecap="round" stroke-linejoin="round"/></symbol><symbol id="icon__exam" viewBox="0 0 24 24"><path d="M9 18h3M3 18l1 1 2-2M9 11.5h3M3 11.5l1 1 2-2M9 5h3M3 5l1 1 2-2" stroke="#464E5F" stroke-width="1.5" stroke-linecap="round" stroke-linejoin="round"/><path clip-rule="evenodd" d="M16 17.167a3.5 3.5 0 00.7 2.1l1 1.333a1 1 0 001.6 0l1.033-1.378a3.333 3.333 0 00.667-2V5.5A2.5 2.5 0 0018.5 3v0A2.5 2.5 0 0016 5.5v11.667z" stroke="#464E5F" stroke-width="1.5" stroke-linecap="round" stroke-linejoin="round"/><path d="M16 8h5" stroke="#464E5F" stroke-width="1.5" stroke-linecap="round" stroke-linejoin="round"/></symbol><symbol id="icon__file_download" viewBox="0 0 24 24"><path d="M13 21h4a3 3 0 003-3V8.51a3 3 0 00-.879-2.122l-2.509-2.51A3 3 0 0014.491 3H7a3 3 0 00-3 3v7" stroke="#464E5F" stroke-width="1.5" stroke-linecap="round" stroke-linejoin="round"/><path d="M20 8.5h-3.5a2 2 0 01-2-2V3M7 16v5M9 19l-2 2M5 19l2 2" stroke="#464E5F" stroke-width="1.5" stroke-linecap="round" stroke-linejoin="round"/></symbol><symbol id="icon__fin-analiz" viewBox="0 0 24 24"><rect x="3" y="3" width="18" height="3" rx="1"/><path d="M4 6h16v11H4zM21 17H3M12 17v2"/><circle cx="12" cy="20.5" r="1.5"/><path d="M10.5 11L8 13M16 10l-3 3M13 13l-2.5-2M16 12v-2h-2"/></symbol><symbol id="icon__fin-plan" viewBox="0 0 24 24"><path d="M7 11h4M7.5 3v3M16.5 3v3M9 21H6a3 3 0 01-3-3V7.5a3 3 0 013-3h12a3 3 0 013 3V11"/><path clip-rule="evenodd" d="M12.5 17h2a.5.5 0 01.5.5V21h-3v-3.5a.5.5 0 01.5-.5zM15.5 13h2a.5.5 0 01.5.5V21h-3v-7.5a.5.5 0 01.5-.5zM18.5 15h2a.5.5 0 01.5.5V21h-3v-5.5a.5.5 0 01.5-.5z"/><path d="M7 15h1"/></symbol><symbol id="icon__fin-reshenia" viewBox="0 0 24 24"><path clip-rule="evenodd" d="M21.004 11.5v8.503a1 1 0 01-1 1H14a1 1 0 01-1-1V11.5a1 1 0 011-1h6.002a1 1 0 011 1z"/><path d="M21.004 14H13M6.498 6.998H15M6.498 10.5h2.5M6.498 14h2.5M10 18.003H4.996a2 2 0 01-2-2.001V4.997a2 2 0 012-2h12.005a2 2 0 012 2v3.001M15.752 16.202a.05.05 0 100 .1.05.05 0 000-.1M18.253 16.202a.05.05 0 100 .1.05.05 0 000-.1M15.752 18.703a.05.05 0 100 .1.05.05 0 000-.1M18.253 18.703a.05.05 0 100 .1.05.05 0 000-.1"/></symbol><symbol id="icon__fin-uchet" viewBox="0 0 24 24"><path d="M16 21l-1-4M8 21l1-4"/><path clip-rule="evenodd" d="M18.925 17H5.075A2.075 2.075 0 013 14.925v-9.85C3 3.929 3.929 3 5.075 3h13.849C20.071 3 21 3.929 21 5.075v9.849A2.075 2.075 0 0118.925 17z"/><path d="M7.5 13v-2.73M10.5 13V7M13.5 13V9.68M16.5 13V7.55"/></symbol><symbol id="icon__help" viewBox="0 0 16 16"><circle cx="8" cy="8" r="6.003" stroke="#464E5F" stroke-width="1.5" stroke-linecap="round" stroke-linejoin="round"/><path d="M6.456 6.456a1.454 1.454 0 011.477-1.124 1.425 1.425 0 011.5 1.334C9.434 7.67 8 8 8 8.667M8.083 10.501A.083.083 0 118 10.418M8 10.418c.046 0 .083.037.083.083" stroke="#464E5F" stroke-width="1.5" stroke-linecap="round" stroke-linejoin="round"/></symbol><symbol id="icon__home-1" viewBox="0 0 24 24"><path d="M2.996 11.695l7.939-6.804a1.637 1.637 0 012.13 0l7.939 6.804" stroke="#464E5F" stroke-width="1.5" stroke-linecap="round" stroke-linejoin="round"/><path d="M20.003 21.004V4.497a.5.5 0 00-.5-.5h-3.001a.5.5 0 00-.5.5v2.607M9.544 21.004V15.5a1 1 0 011-1h2.911a1 1 0 011 1v5.503M4.282 10.593v10.41M21.004 21.004H2.996" stroke="#464E5F" stroke-width="1.5" stroke-linecap="round" stroke-linejoin="round"/></symbol><symbol id="icon__home" viewBox="0 0 24 24"><path clip-rule="evenodd" d="M19.842 8.3l-6-4.668a3 3 0 00-3.684 0l-6 4.667A2.998 2.998 0 003 10.667V18a3 3 0 003 3h12a3 3 0 003-3v-7.333c0-.926-.427-1.8-1.158-2.368z" stroke="#464E5F" stroke-width="1.5"/></symbol><symbol id="icon__income" viewBox="0 0 24 24"><path d="M21 9.5v-3A2.5 2.5 0 0018.5 4h-13A2.5 2.5 0 003 6.5V10M21 14.5v3a2.5 2.5 0 01-2.5 2.5H13" stroke="#464E5F" stroke-width="1.5" stroke-linecap="round" stroke-linejoin="round"/><path clip-rule="evenodd" d="M19.5 9.5H21a1 1 0 011 1v3a1 1 0 01-1 1h-1.5A2.5 2.5 0 0117 12v0a2.5 2.5 0 012.5-2.5v0z" stroke="#464E5F" stroke-width="1.5" stroke-linecap="round" stroke-linejoin="round"/><circle cx="6.5" cy="16.5" r="4.5" stroke="#464E5F" stroke-width="1.5" stroke-linecap="round" stroke-linejoin="round"/><path d="M8 16.5H5M6.5 15v3" stroke="#464E5F" stroke-width="1.5" stroke-linecap="round" stroke-linejoin="round"/></symbol><symbol id="icon__key" viewBox="0 0 24 24"><path clip-rule="evenodd" d="M8 21v0a2.008 2.008 0 002.008-2.006l.004-4.044c.964-.422 1.835-1.128 2.411-2.234.914-1.754.739-3.958-.504-5.496a5.023 5.023 0 00-7.849.018c-1.237 1.543-1.406 3.748-.483 5.497a4.852 4.852 0 002.409 2.219l-.004 4.035A2.009 2.009 0 008 21v0z" stroke="#464E5F" stroke-width="1.5" stroke-linecap="round" stroke-linejoin="round"/><path d="M8.273 10.346a.294.294 0 10-.588 0 .294.294 0 00.588 0" stroke="#464E5F" stroke-width="1.5" stroke-linecap="round" stroke-linejoin="round"/><path d="M13.263 5.632A2.632 2.632 0 0010.631 3v0A2.631 2.631 0 008 5.632v4.42" stroke="#464E5F" stroke-width="1.5" stroke-linecap="round" stroke-linejoin="round"/><path d="M11.398 6.666l.45-.45a2 2 0 012.828 0l5.737 5.737a2 2 0 010 2.828l-2.647 2.647a2 2 0 01-2.828 0l-3.453-3.453" stroke="#464E5F" stroke-width="1.5" stroke-linecap="round" stroke-linejoin="round"/></symbol><symbol id="icon__lesson" viewBox="0 0 24 24"><path d="M20 18H7" stroke="#464E5F" stroke-width="1.5" stroke-linecap="round" stroke-linejoin="round"/><path clip-rule="evenodd" d="M7 21h12a1 1 0 001-1v-5H7a3 3 0 00-3 3v0a3 3 0 003 3z" stroke="#464E5F" stroke-width="1.5" stroke-linecap="round" stroke-linejoin="round"/><path d="M11 7h4M11 11h4M7 3v12M4 18V6a3 3 0 013-3h12a1 1 0 011 1v11" stroke="#464E5F" stroke-width="1.5" stroke-linecap="round" stroke-linejoin="round"/></symbol><symbol id="icon__lock-1" viewBox="0 0 16 16"><path d="M10.187 5.62V4.575A2.116 2.116 0 008.071 2.46h-.137a2.116 2.116 0 00-2.116 2.116V5.62c-.533.043-1.065.1-1.596.171V4.581A3.718 3.718 0 017.93.865h.137a3.719 3.719 0 013.71 3.713v1.21a30.772 30.772 0 00-1.59-.169zm-7.12 1.662a26.54 26.54 0 019.866 0l.074.014a.831.831 0 01.677.817v5.683a.83.83 0 01-.677.818l-.504.095A24.21 24.21 0 018 15.136c-1.51 0-3.017-.141-4.5-.422l-.506-.095a.83.83 0 01-.677-.818V8.118a.831.831 0 01.677-.818l.073-.018zm2.666 3.762l1.451 1.678a.372.372 0 00.556 0l2.355-2.576a.372.372 0 00-.012-.514l-.42-.412a.372.372 0 00-.51-.016L7.45 10.72l-.794-.62a.372.372 0 00-.492.03l-.413.414a.373.373 0 00-.018.5z" fill="#464E5F"/></symbol><symbol id="icon__lock" viewBox="0 0 24 24"><path d="M8 10V7v0a4 4 0 014-4v0a4 4 0 014 4v3M12 14v3" stroke="#464E5F" stroke-width="1.5" stroke-linecap="round" stroke-linejoin="round"/><path clip-rule="evenodd" d="M17 21H7a2 2 0 01-2-2v-7a2 2 0 012-2h10a2 2 0 012 2v7a2 2 0 01-2 2z" stroke="#464E5F" stroke-width="1.5" stroke-linecap="round" stroke-linejoin="round"/></symbol><symbol id="icon__logout" viewBox="0 0 24 24"><path d="M16 15l3-3-3-3" stroke="#464E5F" stroke-width="1.5" stroke-linecap="round" stroke-linejoin="round"/><path d="M16 15l3-3-3-3M18.4 12H8.8M18.4 12H8.8M18.364 18.364a9 9 0 110-12.728M18.364 18.364a9 9 0 110-12.728" stroke="#464E5F" stroke-width="1.5" stroke-linecap="round" stroke-linejoin="round"/></symbol><symbol id="icon__menu" viewBox="0 0 24 24"><path d="M11.997 17.502c-.275 0-.5.225-.497.5 0 .276.225.5.5.5s.5-.224.5-.5c0-.275-.225-.5-.503-.5M11.997 11.5c-.275 0-.5.225-.497.5 0 .275.225.5.5.5s.5-.225.5-.5-.225-.5-.503-.5M11.997 5.497c-.275 0-.5.225-.497.5 0 .276.225.5.5.5s.5-.224.5-.5c0-.275-.225-.5-.503-.5" stroke="#464E5F" stroke-width="1.5" stroke-linecap="round" stroke-linejoin="round"/></symbol><symbol id="icon__money" viewBox="0 0 24 24"><path d="M17.5 16H19a2.5 2.5 0 002.5-2.5v-7A2.5 2.5 0 0019 4H8a2.5 2.5 0 00-2.5 2.5V8" stroke="#464E5F" stroke-width="1.5" stroke-linecap="round" stroke-linejoin="round"/><rect x="2.5" y="8" width="15" height="12" rx="2.5" stroke="#464E5F" stroke-width="1.5" stroke-linecap="round" stroke-linejoin="round"/><circle cx="10" cy="14" r="1.5" stroke="#464E5F" stroke-width="1.5" stroke-linecap="round" stroke-linejoin="round"/><path d="M14.5 13v2M5.5 13v2" stroke="#464E5F" stroke-width="1.5" stroke-linecap="round" stroke-linejoin="round"/></symbol><symbol id="icon__no-notification" viewBox="0 0 24 24"><path d="M5.994 9c0-3.314 2.689-6 6.006-6M5.248 18h13.504c1.176 0 1.697-1.479.78-2.215l-.309-.248A3.256 3.256 0 0118.006 13V9c0-1.265-.392-2.44-1.061-3.407M10.5 21h3" stroke="#464E5F" stroke-width="1.5" stroke-linecap="round"/><path d="M1.5 21L21 1.5" stroke="#464E5F" stroke-width="1.5" stroke-linecap="round" stroke-linejoin="round"/></symbol><symbol id="icon__notification" viewBox="0 0 24 24"><path clip-rule="evenodd" d="M5.994 13V9c0-3.314 2.689-6 6.006-6a6.003 6.003 0 016.006 6v4c0 .986.448 1.919 1.217 2.537l.309.248c.917.736.396 2.215-.78 2.215H5.248c-1.176 0-1.697-1.479-.78-2.215l.309-.248A3.252 3.252 0 005.994 13z" stroke="#464E5F" stroke-width="1.5" stroke-linecap="round" stroke-linejoin="round"/><path d="M10.5 21h3" stroke="#464E5F" stroke-width="1.5" stroke-linecap="round" stroke-linejoin="round"/></symbol><symbol id="icon__notification_add" viewBox="0 0 24 24"><path d="M12 9.353v4.002M10 11.354h4M9.509 18.003v.512a2.489 2.489 0 002.489 2.489H12a2.49 2.49 0 002.491-2.49v-.511" stroke="#464E5F" stroke-width="1.5" stroke-linecap="round" stroke-linejoin="round"/><path clip-rule="evenodd" d="M17.95 18.003c1.134 0 2.053-.92 2.053-2.054v0c0-.577-.229-1.13-.636-1.537l-1.364-1.364v-4.05A6.002 6.002 0 0012 2.997v0A6.002 6.002 0 005.998 9v4.05l-1.365 1.363c-.407.408-.636.96-.636 1.537v0a2.054 2.054 0 002.054 2.054H17.95z" stroke="#464E5F" stroke-width="1.5" stroke-linecap="round" stroke-linejoin="round"/></symbol><symbol id="icon__opportunities" viewBox="0 0 24 24"><path d="M10 11.5l3 3M17 10.5l-4 4-2.917-2.917M9 14.5l-2-2M14 9.5l-1 1"/><path clip-rule="evenodd" d="M19 21H5a2 2 0 01-2-2V5a2 2 0 012-2h14a2 2 0 012 2v14a2 2 0 01-2 2z"/></symbol><symbol id="icon__others" viewBox="0 0 24 24"><path clip-rule="evenodd" d="M4 14.5h6v6H4v-6zM17.5 21v0a3.5 3.5 0 01-3.5-3.5v0a3.5 3.5 0 013.5-3.5v0a3.5 3.5 0 013.5 3.5v0a3.5 3.5 0 01-3.5 3.5zM12 3l-4.5 7h9L12 3z" stroke="#464E5F" stroke-width="1.5" stroke-linecap="round" stroke-linejoin="round"/></symbol><symbol id="icon__outcome" viewBox="0 0 24 24"><path d="M21 9.5v-3A2.5 2.5 0 0018.5 4h-13A2.5 2.5 0 003 6.5V10M21 14.5v3a2.5 2.5 0 01-2.5 2.5H13" stroke="#464E5F" stroke-width="1.5" stroke-linecap="round" stroke-linejoin="round"/><path clip-rule="evenodd" d="M19.5 9.5H21a1 1 0 011 1v3a1 1 0 01-1 1h-1.5A2.5 2.5 0 0117 12v0a2.5 2.5 0 012.5-2.5v0z" stroke="#464E5F" stroke-width="1.5" stroke-linecap="round" stroke-linejoin="round"/><circle cx="6.5" cy="16.5" r="4.5" stroke="#464E5F" stroke-width="1.5" stroke-linecap="round" stroke-linejoin="round"/><path d="M8 16.5H5" stroke="#464E5F" stroke-width="1.5" stroke-linecap="round" stroke-linejoin="round"/></symbol><symbol id="icon__password" viewBox="0 0 24 24"><path d="M16 20V4M16 20V4M13 17H5a2 2 0 01-2-2V9a2 2 0 012-2h8" stroke="#464E5F" stroke-width="1.5" stroke-linecap="round" stroke-linejoin="round"/><path d="M13 17H5a2 2 0 01-2-2V9a2 2 0 012-2h8M16 17h3a2 2 0 002-2V9a2 2 0 00-2-2h-3" stroke="#464E5F" stroke-width="1.5" stroke-linecap="round" stroke-linejoin="round"/><path d="M16 17h3a2 2 0 002-2V9a2 2 0 00-2-2h-3M13.5 20h5M13.5 20h5M13.5 4h5M13.5 4h5M7 12h1M7 12h1M11 12h1M11 12h1" stroke="#464E5F" stroke-width="1.5" stroke-linecap="round" stroke-linejoin="round"/></symbol><symbol id="icon__payment" viewBox="0 0 24 24"><path d="M12.982 14h7.521a1.5 1.5 0 001.501-1.5V6.498a1.5 1.5 0 00-1.5-1.5H10.498a1.5 1.5 0 00-1.5 1.5V13M14.44 8.438a1.5 1.5 0 012.122 2.122" stroke="#464E5F" stroke-width="1.5" stroke-linecap="round" stroke-linejoin="round"/><path d="M8.999 7.998H6.706a3 3 0 00-1.342.317l-.586.293a3 3 0 00-1.23 1.14l-1.552 2.586M2.996 21.004l5.765-2.083a4.002 4.002 0 001.969-1.543l2.994-4.49a1.646 1.646 0 00-.206-2.078v0a1.647 1.647 0 00-2.328 0L9 13H6.998" stroke="#464E5F" stroke-width="1.5" stroke-linecap="round" stroke-linejoin="round"/></symbol><symbol id="icon__pie" viewBox="0 0 24 24"><path clip-rule="evenodd" d="M10.5 6a7.5 7.5 0 107.5 7.5h-7.5V6z" stroke="#464E5F" stroke-width="1.5" stroke-linecap="round" stroke-linejoin="round"/><path clip-rule="evenodd" d="M21 10a7 7 0 00-7-7v7h7z" stroke="#464E5F" stroke-width="1.5" stroke-linecap="round" stroke-linejoin="round"/></symbol><symbol id="icon__popup" viewBox="0 0 24 24"><path clip-rule="evenodd" d="M19 18H8a2 2 0 01-2-2V5a2 2 0 012-2h11a2 2 0 012 2v11a2 2 0 01-2 2z" stroke="#464E5F" stroke-width="1.5" stroke-linecap="round" stroke-linejoin="round"/><path d="M6 8h15M8.779 5.49c-.003 0-.005.002-.005.005s.002.005.005.005.005-.002.005-.005-.002-.005-.005-.005M11.322 5.49c-.003 0-.005.002-.005.005s.003.005.005.005c.003 0 .005-.002.005-.005s-.002-.005-.005-.005M13.861 5.49c-.003 0-.005.002-.005.005s.002.005.005.005.005-.002.005-.005-.002-.005-.005-.005M6 6H5a2 2 0 00-2 2v11a2 2 0 002 2h11a2 2 0 002-2v-1" stroke="#464E5F" stroke-width="1.5" stroke-linecap="round" stroke-linejoin="round"/></symbol><symbol id="icon__popup_2" viewBox="0 0 24 24"><path d="M11.975 12.025a3.5 3.5 0 11-4.95 4.95 3.5 3.5 0 014.95-4.95M16 13h2M16 16h2M5.779 5.49c-.003 0-.005.002-.005.005s.002.005.005.005.005-.002.005-.005-.002-.005-.005-.005M8.322 5.49c-.003 0-.005.002-.005.005s.003.005.005.005c.003 0 .005-.002.005-.005s-.002-.005-.005-.005M10.861 5.49c-.003 0-.005.002-.005.005s.002.005.005.005.005-.002.005-.005-.002-.005-.005-.005M3 8h18" stroke="#464E5F" stroke-width="1.5" stroke-linecap="round" stroke-linejoin="round"/><path clip-rule="evenodd" d="M19 3H5a2 2 0 00-2 2v14a2 2 0 002 2h14a2 2 0 002-2V5a2 2 0 00-2-2z" stroke="#464E5F" stroke-width="1.5" stroke-linecap="round" stroke-linejoin="round"/><path d="M9.5 11v3.5l-2.471 2.471" stroke="#464E5F" stroke-width="1.5" stroke-linecap="round" stroke-linejoin="round"/></symbol><symbol id="icon__question" viewBox="0 0 24 24"><path d="M10 10a2 2 0 112 2M12 13.5V12" stroke="#464E5F" stroke-width="1.5" stroke-linecap="round" stroke-linejoin="round"/><path clip-rule="evenodd" d="M2.996 16.002V7.998a5.002 5.002 0 015.002-5.002h8.004a5.002 5.002 0 015.002 5.002v8.004a5.002 5.002 0 01-5.002 5.002H7.998a5.002 5.002 0 01-5.002-5.002z" stroke="#464E5F" stroke-width="1.5" stroke-linecap="round" stroke-linejoin="round"/><path d="M12 15.952a.05.05 0 100 .1.05.05 0 000-.1" stroke="#464E5F" stroke-width="1.5" stroke-linecap="round" stroke-linejoin="round"/></symbol><symbol id="icon__remove" viewBox="0 0 24 24"><path clip-rule="evenodd" d="M16.138 21h-8.28a2.001 2.001 0 01-1.995-1.853L4.966 7H19l-.867 12.142A2 2 0 0116.138 21v0z" stroke="#464E5F" stroke-width="1.5" stroke-linecap="round" stroke-linejoin="round"/><path d="M12 11v6M4 7h16M17 7l-1.013-2.702A2 2 0 0014.114 3H9.886a2 2 0 00-1.873 1.298L7 7M15.43 11L15 17M8.57 11L9 17" stroke="#464E5F" stroke-width="1.5" stroke-linecap="round" stroke-linejoin="round"/></symbol><symbol id="icon__renewal" viewBox="0 0 24 24"><circle cx="17.75" cy="17.75" r="4.25" stroke="#464E5F" stroke-width="1.5" stroke-linecap="round" stroke-linejoin="round"/><path d="M17.75 16.5V19M19 17.75h-2.5M12.391 7v5.391H8M20.941 11A8.998 8.998 0 1011 20.941" stroke="#464E5F" stroke-width="1.5" stroke-linecap="round" stroke-linejoin="round"/></symbol><symbol id="icon__restaurant" viewBox="0 0 24 24"><rect x="3.232" y="2.873" width="18" height="18" rx="5" stroke="#464E5F" stroke-width="1.5" stroke-linecap="round" stroke-linejoin="round"/><path d="M15 12.45V17M10 17v-3M9.994 7l.006.007L9.993 7C8.34 7 7 9.233 7 11.989V13.9a.3.3 0 00.3.3H10V7.007" stroke="#464E5F" stroke-width="1.5" stroke-linecap="round" stroke-linejoin="round"/><ellipse cx="15" cy="9.65" rx="2" ry="2.8" stroke="#464E5F" stroke-width="1.5" stroke-linecap="round" stroke-linejoin="round"/></symbol><symbol id="icon__rocket" viewBox="0 0 24 24"><path clip-rule="evenodd" d="M16.739 11.626l-4.513 3.61a.836.836 0 01-1.114-.062l-2.286-2.286a.836.836 0 01-.062-1.114l3.61-4.513a8.699 8.699 0 016.793-3.264c.462 0 .836.374.836.836a8.699 8.699 0 01-3.264 6.793z"/><path d="M8.597 12.459l-1.894-.632a.836.836 0 01-.483-1.167l1.01-2.02a.836.836 0 01.747-.462h3.665M11.541 15.402l.632 1.895a.836.836 0 001.167.483l2.02-1.01a.836.836 0 00.462-.747v-3.665"/><path clip-rule="evenodd" d="M6.605 19.611l-2.608.392.392-2.608a1.949 1.949 0 113.854.579 1.949 1.949 0 01-1.638 1.637z"/><path d="M19.653 7.268A8.913 8.913 0 0121.003 12a9.008 9.008 0 01-13.985 7.503M4.497 16.982A9 9 0 0116.732 4.347"/></symbol><symbol id="icon__rocket_2" viewBox="0 0 24 24"><path clip-rule="evenodd" d="M17.098 12.123l-5.4 4.32a1 1 0 01-1.332-.074l-2.735-2.735a1 1 0 01-.074-1.333l4.32-5.399a10.407 10.407 0 018.126-3.906v0a1 1 0 011 1v0c0 3.162-1.436 6.152-3.905 8.127z" stroke="#464E5F" stroke-width="1.5" stroke-linecap="round" stroke-linejoin="round"/><path d="M16.002 13v4.384a1 1 0 01-.553.895l-2.417 1.209a1 1 0 01-1.397-.579L11 17.002M6.998 13l-1.907-.635a1 1 0 01-.578-1.397L5.72 8.551a1 1 0 01.895-.553H11" stroke="#464E5F" stroke-width="1.5" stroke-linecap="round" stroke-linejoin="round"/><path clip-rule="evenodd" d="M5.747 20.59l-2.75.414.413-2.752a2.055 2.055 0 011.727-1.727v0a2.055 2.055 0 012.338 2.338v0a2.055 2.055 0 01-1.728 1.727v0z" stroke="#464E5F" stroke-width="1.5" stroke-linecap="round" stroke-linejoin="round"/></symbol><symbol id="icon__settings" viewBox="0 0 24 24"><path clip-rule="evenodd" d="M5 11.255L3.684 9.771a1 1 0 01-.118-1.163l1.28-2.216a1 1 0 011.066-.48l1.943.398 1.29-.745.627-1.881A1 1 0 0110.721 3h2.558a1 1 0 01.949.684l.627 1.881 1.29.745 1.943-.398a1 1 0 011.067.48l1.279 2.216a1 1 0 01-.118 1.163L19 11.255v1.49l1.316 1.484a1 1 0 01.118 1.163l-1.28 2.216a1 1 0 01-1.066.48l-1.943-.398-1.29.744-.627 1.882a1 1 0 01-.949.684h-2.558a1 1 0 01-.949-.684l-.627-1.881-1.29-.745-1.943.398a1 1 0 01-1.067-.48l-1.279-2.216a1 1 0 01.118-1.163L5 12.745v-1.49z" stroke="#464E5F" stroke-width="1.5" stroke-linecap="round" stroke-linejoin="round"/><circle cx="12" cy="12" r="3" stroke="#464E5F" stroke-width="1.5" stroke-linecap="round" stroke-linejoin="round"/></symbol><symbol id="icon__shop" viewBox="0 0 24 24"><path d="M4 7V5a1 1 0 011-1h14a1 1 0 011 1v2" stroke="#464E5F" stroke-width="1.5" stroke-linecap="round" stroke-linejoin="round"/><path clip-rule="evenodd" d="M20 7H4a1 1 0 00-1 1v11a2 2 0 002 2h14a2 2 0 002-2V8a1 1 0 00-1-1z" stroke="#464E5F" stroke-width="1.5" stroke-linecap="round" stroke-linejoin="round"/><path d="M16 11a4 4 0 01-8 0" stroke="#464E5F" stroke-width="1.5" stroke-linecap="round" stroke-linejoin="round"/></symbol><symbol id="icon__shop_2" viewBox="0 0 24 24"><path d="M4.22 10.89v10M19.78 10.89v10M14.222 20.889v-4.444a2.222 2.222 0 00-4.444 0v4.444M2 20.89h20" stroke="#464E5F" stroke-width="1.5" stroke-linecap="round" stroke-linejoin="round"/><path clip-rule="evenodd" d="M4.301 10.889c-1.698-.012-2.805-1.693-2.069-3.142L3.947 4.37c.391-.77 1.213-1.259 2.115-1.259h11.876c.902 0 1.724.489 2.115 1.259l1.716 3.377c.736 1.449-.371 3.13-2.069 3.142-1.417 0-2.566-.968-2.566-2.163v-.048c0 1.221-1.149 2.211-2.566 2.211-1.417 0-2.566-.99-2.566-2.211 0 1.221-1.149 2.211-2.566 2.211-1.417 0-2.566-.99-2.566-2.211v.048c-.003 1.195-1.152 2.163-2.569 2.163z" stroke="#464E5F" stroke-width="1.5" stroke-linecap="round" stroke-linejoin="round"/></symbol><symbol id="icon__target" viewBox="0 0 24 24"><path d="M12 14a2 2 0 110-4" stroke="#464E5F" stroke-width="1.5" stroke-linecap="round" stroke-linejoin="round"/><path clip-rule="evenodd" d="M18.207 10H21.5a.5.5 0 01.424.765L21.151 12l.772 1.235A.5.5 0 0121.5 14h-3.292a.5.5 0 01-.354-.146L16 12l1.854-1.854a.5.5 0 01.353-.146v0z" stroke="#464E5F" stroke-width="1.5" stroke-linecap="round" stroke-linejoin="round"/><path d="M14 12h2M15.767 8a5.5 5.5 0 100 8M19.482 7a9 9 0 100 10" stroke="#464E5F" stroke-width="1.5" stroke-linecap="round" stroke-linejoin="round"/></symbol><symbol id="icon__target_2" viewBox="0 0 24 24"><path d="M14.04 9.96l-2.51 2.51" stroke="#464E5F" stroke-width="1.5" stroke-linecap="round" stroke-linejoin="round"/><path clip-rule="evenodd" d="M14 5.997V10h4.003l4.001-4.002-2.668-1.333-1.333-2.668L14 5.998z" stroke="#464E5F" stroke-width="1.5" stroke-linecap="round" stroke-linejoin="round"/><path d="M11 3.972A8.524 8.524 0 1020.03 13M16.212 13A4.727 4.727 0 1111 7.788" stroke="#464E5F" stroke-width="1.5" stroke-linecap="round" stroke-linejoin="round"/></symbol><symbol id="icon__test" viewBox="0 0 24 24"><path d="M8.999 21.004H5.997a3.001 3.001 0 01-3-3.002V5.998a3.001 3.001 0 013-3h12.006a3.001 3.001 0 013 3V9"/><path clip-rule="evenodd" d="M14.723 20.71a1 1 0 01-.707.294H12v-2.016a1 1 0 01.293-.707l5.927-5.932a1.722 1.722 0 012.435 0 1.72 1.72 0 010 2.435l-5.932 5.927z"/><path d="M16.013 14.563l2.43 2.431M20.168 15.27l.9.9a1.217 1.217 0 010 1.718l-1.089 1.09M9.249 11H14M9.249 7.123h6.753M6.123 11.125a.125.125 0 100-.25.125.125 0 000 .25M6.123 7.248a.125.125 0 100-.25.125.125 0 000 .25M9.249 14.876h1.75M6.123 15.001a.125.125 0 100-.25.125.125 0 000 .25"/></symbol><symbol id="icon__time" viewBox="0 0 24 24"><path d="M12 5.997a7.503 7.503 0 110 15.007 7.503 7.503 0 010-15.007M12 8.999V13M10 2.996h4M20.003 6.998l-1-1" stroke="#464E5F" stroke-width="1.5" stroke-linecap="round" stroke-linejoin="round"/></symbol><symbol id="icon__trash" viewBox="0 0 24 24"><path clip-rule="evenodd" d="M15.543 21.004H8.457a2.25 2.25 0 01-2.244-2.079L5.247 6.373h13.506l-.966 12.552a2.25 2.25 0 01-2.244 2.079v0z" stroke="#464E5F" stroke-width="1.5" stroke-linecap="round" stroke-linejoin="round"/><path d="M20.003 6.373H3.997" stroke="#464E5F" stroke-width="1.5" stroke-linecap="round" stroke-linejoin="round"/><path clip-rule="evenodd" d="M9.186 2.996h5.628c.621 0 1.125.504 1.125 1.126v2.25H8.061v-2.25a1.125 1.125 0 011.125-1.126z" stroke="#464E5F" stroke-width="1.5" stroke-linecap="round" stroke-linejoin="round"/><path d="M10 17.002h4" stroke="#464E5F" stroke-width="1.5" stroke-linecap="round" stroke-linejoin="round"/></symbol><symbol id="icon__user--2" viewBox="0 0 24 24"><path d="M20 20v-.75A4.25 4.25 0 0015.75 15h-7.5A4.25 4.25 0 004 19.25V20" stroke="#464E5F" stroke-width="1.5" stroke-linecap="round" stroke-linejoin="round"/><circle cx="12" cy="7" r="4" stroke="#464E5F" stroke-width="1.5" stroke-linecap="round" stroke-linejoin="round"/></symbol><symbol id="icon__user" viewBox="0 0 24 24"><circle cx="12" cy="12" r="9.004"/><path d="M16.002 16.002a2.11 2.11 0 00-1.963-1.334H9.962c-.532 0-1.045.202-1.435.564-.231.215-.412.477-.529.77"/><circle cx="12" cy="10.249" r="2.251"/></symbol><symbol id="icon__vacation" viewBox="0 0 24 24"><path d="M12 15V9M9 9c0-3.3 1.3-6 3-6s3 2.7 3 6M7.1 18L6 21M15.9 18l1.1 3" stroke="#464E5F" stroke-width="1.5" stroke-linecap="round" stroke-linejoin="round"/><path clip-rule="evenodd" d="M4.5 18h11.1c1.1 0 2.1-.4 3-1l1.8-1.4c.5-.4.7-1.1.5-1.7v0c-.3-1-1.5-1.3-2.3-.7l-1.8 1.4c-.3.3-.8.4-1.2.4H4.5c-.8 0-1.5.7-1.5 1.5v0c0 .8.7 1.5 1.5 1.5z" stroke="#464E5F" stroke-width="1.5" stroke-linecap="round" stroke-linejoin="round"/><path clip-rule="evenodd" d="M4.5 18h11.1c1.1 0 2.1-.4 3-1l1.8-1.4c.5-.4.7-1.1.5-1.7v0c-.3-1-1.5-1.3-2.3-.7l-1.8 1.4c-.3.3-.8.4-1.2.4H4.5c-.8 0-1.5.7-1.5 1.5v0c0 .8.7 1.5 1.5 1.5zM4 9h16c0-3-4-6-8-6S4 6 4 9z" stroke="#464E5F" stroke-width="1.5" stroke-linecap="round" stroke-linejoin="round"/></symbol><symbol id="icon__video" viewBox="0 0 24 24"><path clip-rule="evenodd" d="M19 21H5c-1.1 0-2-.9-2-2V8a2 2 0 012-2h14c1.1 0 2 .9 2 2v11a2 2 0 01-2 2z" stroke="#464E5F" stroke-width="1.5" stroke-linecap="round" stroke-linejoin="round"/><path clip-rule="evenodd" d="M11.007 10.742l3.639 2.152c.46.272.46.938 0 1.21l-3.639 2.152a.704.704 0 01-1.062-.605v-4.304a.704.704 0 011.062-.605v0z" stroke="#464E5F" stroke-width="1.5" stroke-linecap="round" stroke-linejoin="round"/><path d="M4.782 6V5a2 2 0 012-2h10.435a2 2 0 012 2v1" stroke="#464E5F" stroke-width="1.5" stroke-linecap="round" stroke-linejoin="round"/></symbol><symbol id="icon__wallet" viewBox="0 0 24 24"><path clip-rule="evenodd" d="M17.999 7H6.001a1 1 0 00-.893 1.45l.503 1c.17.337.516.55.894.55h10.991a1 1 0 00.893-.55l.503-1A1 1 0 0017.999 7v0z" stroke="#464E5F" stroke-width="1.5" stroke-linecap="round" stroke-linejoin="round"/><path d="M14.957 5.889C14.094 6.787 12.737 7 12.08 7M12.08 7s-.395-2.492.577-3.504M14.957 5.889a1.742 1.742 0 000-2.394 1.582 1.582 0 00-2.3 0M9.043 5.889C9.906 6.787 11.263 7 11.92 7M11.92 7s.395-2.492-.577-3.504M9.043 5.889a1.742 1.742 0 010-2.394 1.582 1.582 0 012.3 0M6.08 9.896l-2.528 4.19A3.833 3.833 0 003 16.071v0c0 .922.331 1.813.933 2.512l.933 1.082A3.847 3.847 0 007.78 21h8.44a3.847 3.847 0 002.914-1.335l.933-1.082c.602-.699.933-1.59.933-2.512v0c0-.701-.191-1.388-.553-1.988L17.92 9.896" stroke="#464E5F" stroke-width="1.5" stroke-linecap="round" stroke-linejoin="round"/></symbol><symbol id="icon__warning" viewBox="0 0 24 24"><path d="M12 13.12V9.38M11.999 16.125a.25.25 0 10.002.5.25.25 0 00-.002-.5" stroke="#464E5F" stroke-width="1.5" stroke-linecap="round" stroke-linejoin="round"/><path clip-rule="evenodd" d="M14.029 4.139l7.659 13.404c.89 1.558-.235 3.497-2.029 3.497H4.341c-1.795 0-2.92-1.939-2.029-3.497L9.971 4.139c.897-1.571 3.161-1.571 4.058 0z" stroke="#464E5F" stroke-width="1.5" stroke-linecap="round" stroke-linejoin="round"/></symbol><symbol id="logo__shfe--mobile" viewBox="0 0 140 40"><path d="M48.6 34h.96v-2.44h.56L51.83 34H53l-2.12-2.928 1.96-2.672h-1.104l-1.616 2.28h-.56V28.4h-.96V34zm4.793.08h.08c1.744 0 1.84-1.6 1.84-3.12v-1.68h1.92V34h.96v-5.6h-3.84v2.56c0 1.24-.016 2.24-.88 2.24h-.08v.88zM60.18 34h1.008l2.44-5.6H62.62l-1.232 2.96h-.016L59.98 28.4h-1.072l1.968 4-.696 1.6zm4.17 0h2.04c1.351 0 2.04-.688 2.04-1.776 0-1.104-.673-1.776-2.04-1.776h-1.08V29.28h2.72v-.88h-3.68V34zm.96-.88v-1.792h1.04c.703 0 1.071.368 1.071.896 0 .544-.352.896-1.072.896h-1.04z" fill="#464E5F"/><path fill-rule="evenodd" clip-rule="evenodd" d="M51.649 13.09h1.2v-.44c2.03 0 3.25-1.22 3.25-3.04v-.22c0-1.84-1.2-3.04-3.25-3.04v-.44h-1.2v.44c-2.03 0-3.25 1.22-3.25 3.04v.22c0 1.84 1.2 3.04 3.25 3.04v.44zm3.19-3.7v.22c0 1.25-.69 1.94-1.99 1.94v-4.1c1.28 0 1.99.71 1.99 1.94zm-5.18.22v-.22c0-1.25.69-1.94 1.99-1.94v4.1c-1.28 0-1.99-.71-1.99-1.94z" fill="#3156A6"/><path d="M57.445 13h1.62l2.86-5.5h.02V13h1.2V6h-1.62l-2.86 5.5h-.02V6h-1.2v7zM64.842 13h1.2V9.95h3.3V13h1.2V6h-1.2v2.85h-3.3V6h-1.2v7z" fill="#3156A6"/><path fill-rule="evenodd" clip-rule="evenodd" d="M71.64 13h1.2l.59-1.75h2.75l.58 1.75h1.28l-2.5-7h-1.4l-2.5 7zm3.17-5.85h.02l.99 3H73.8l1.01-3z" fill="#3156A6"/><path d="M79.139 13h1.2V9.95h3.3V13h1.2V6h-1.2v2.85h-3.3V6h-1.2v7zM89.336 13.1c1.66 0 2.65-.99 2.85-2.4h-1.32c-.2.8-.7 1.3-1.53 1.3-1.04 0-1.79-.75-1.79-2.34v-.42c0-1.51.73-2.24 1.79-2.24.85 0 1.35.5 1.55 1.2h1.3c-.2-1.3-1.2-2.3-2.85-2.3-1.82 0-3.05 1.23-3.05 3.34v.42c0 2.22 1.22 3.44 3.05 3.44z" fill="#3156A6"/><path fill-rule="evenodd" clip-rule="evenodd" d="M96.383 13.1c1.87 0 3.1-1.23 3.1-3.44v-.42c0-2.12-1.22-3.34-3.1-3.34-1.87 0-3.1 1.23-3.1 3.34v.42c0 2.22 1.22 3.44 3.1 3.44zm0-1.1c-1.1 0-1.84-.74-1.84-2.34v-.42c0-1.52.72-2.24 1.84-2.24 1.09 0 1.84.75 1.84 2.24v.42c0 1.62-.73 2.34-1.84 2.34zM100.93 13h2.6c1.8 0 2.5-.7 2.5-2.02 0-.76-.38-1.31-1.09-1.61v-.02c.59-.32.89-.82.89-1.45 0-1.2-.7-1.9-2.5-1.9h-2.4v7zm2.35-5.9c.97 0 1.29.32 1.29.9 0 .58-.32.9-1.29.9h-1.15V7.1h1.15zm.2 2.8c.97 0 1.29.32 1.29 1 0 .68-.32 1-1.29 1h-1.35v-2h1.35zM110.279 13.1c1.87 0 3.1-1.23 3.1-3.44v-.42c0-2.12-1.22-3.34-3.1-3.34-1.87 0-3.1 1.23-3.1 3.34v.42c0 2.22 1.22 3.44 3.1 3.44zm0-1.1c-1.1 0-1.84-.74-1.84-2.34v-.42c0-1.52.72-2.24 1.84-2.24 1.09 0 1.84.75 1.84 2.24v.42c0 1.62-.73 2.34-1.84 2.34z" fill="#3156A6"/><path d="M114.826 13h1.62l2.86-5.5h.02V13h1.2V6h-1.62l-2.86 5.5h-.02V6h-1.2v7zM117.676 5.4c1.01 0 1.55-.54 1.55-1.4h-.9c0 .45-.25.7-.65.7s-.65-.25-.65-.7h-.9c0 .86.54 1.4 1.55 1.4zM51.249 23.1c1.83 0 3.05-1.22 3.05-3.44v-.42c0-2.11-1.23-3.34-3.05-3.34-1.65 0-2.65 1-2.85 2.3h1.3c.2-.69.7-1.2 1.55-1.2 1.07 0 1.7.67 1.78 1.94h-2.63v1.02h2.63c-.07 1.37-.74 2.04-1.78 2.04-.83 0-1.33-.5-1.53-1.3h-1.32c.2 1.41 1.19 2.4 2.85 2.4z" fill="#3156A6"/><path fill-rule="evenodd" clip-rule="evenodd" d="M58.646 23.09h1.2v-.44c2.03 0 3.25-1.22 3.25-3.04v-.22c0-1.84-1.2-3.04-3.25-3.04v-.44h-1.2v.44c-2.03 0-3.25 1.22-3.25 3.04v.22c0 1.84 1.2 3.04 3.25 3.04v.44zm3.19-3.7v.22c0 1.25-.69 1.94-1.99 1.94v-4.1c1.28 0 1.99.71 1.99 1.94zm-5.18.22v-.22c0-1.25.69-1.94 1.99-1.94v4.1c-1.28 0-1.99-.71-1.99-1.94zM67.342 23.09h1.2v-.44c2.03 0 3.25-1.22 3.25-3.04v-.22c0-1.84-1.2-3.04-3.25-3.04v-.44h-1.2v.44c-2.03 0-3.25 1.22-3.25 3.04v.22c0 1.84 1.2 3.04 3.25 3.04v.44zm3.19-3.7v.22c0 1.25-.69 1.94-1.99 1.94v-4.1c1.28 0 1.99.71 1.99 1.94zm-5.18.22v-.22c0-1.25.69-1.94 1.99-1.94v4.1c-1.28 0-1.99-.71-1.99-1.94z" fill="#3156A6"/><path d="M73.138 23h4.5v-1.1h-3.3v-1.95h2.7v-1.1h-2.7V17.1h3.3V16h-4.5v7zM79.031 23h1.2v-3.05h.7l2.14 3.05h1.46l-2.65-3.66 2.45-3.34h-1.38l-2.02 2.85h-.7V16h-1.2v7zM87.277 23h1.2v-5.9h2.15V16h-5.5v1.1h2.15V23zM91.775 23h1.62l2.86-5.5h.02V23h1.2v-7h-1.62l-2.86 5.5h-.02V16h-1.2v7z" fill="#3156A6"/><path fill-rule="evenodd" clip-rule="evenodd" d="M99.172 23h2.6c1.8 0 2.5-.7 2.5-2.02 0-.76-.38-1.31-1.09-1.61v-.02c.59-.32.89-.82.89-1.45 0-1.2-.7-1.9-2.5-1.9h-2.4v7zm2.35-5.9c.97 0 1.29.32 1.29.9 0 .58-.32.9-1.29.9h-1.15v-1.8h1.15zm.2 2.8c.97 0 1.29.32 1.29 1 0 .68-.32 1-1.29 1h-1.35v-2h1.35z" fill="#3156A6"/><path d="M105.671 23h1.2v-3.05h3.3V23h1.2v-7h-1.2v2.85h-3.3V16h-1.2v7z" fill="#3156A6"/><path fill-rule="evenodd" clip-rule="evenodd" d="M115.918 23.1c1.87 0 3.1-1.23 3.1-3.44v-.42c0-2.12-1.22-3.34-3.1-3.34-1.87 0-3.1 1.23-3.1 3.34v.42c0 2.22 1.22 3.44 3.1 3.44zm0-1.1c-1.1 0-1.84-.74-1.84-2.34v-.42c0-1.52.72-2.24 1.84-2.24 1.09 0 1.84.75 1.84 2.24v.42c0 1.62-.73 2.34-1.84 2.34z" fill="#3156A6"/><path d="M123.266 23.1c1.66 0 2.65-.99 2.85-2.4h-1.32c-.2.8-.7 1.3-1.53 1.3-1.04 0-1.79-.75-1.79-2.34v-.42c0-1.51.73-2.24 1.79-2.24.85 0 1.35.5 1.55 1.2h1.3c-.2-1.3-1.2-2.3-2.85-2.3-1.82 0-3.05 1.23-3.05 3.34v.42c0 2.22 1.22 3.44 3.05 3.44zM128.76 23h1.2v-5.9h2.15V16h-5.5v1.1h2.15V23zM133.258 23h1.62l2.86-5.5h.02V23h1.2v-7h-1.62l-2.86 5.5h-.02V16h-1.2v7z" fill="#3156A6"/><path fill-rule="evenodd" clip-rule="evenodd" d="M35.158 22.546a4.083 4.083 0 01-1.93 5.87L18.505 34.55a7.412 7.412 0 01-5.99-.127l-4.977-2.323a4.084 4.084 0 01-2.064-5.216l8.02-20.05a4.085 4.085 0 015.518-2.185l5.456 2.547a7.407 7.407 0 013.224 2.906l7.466 12.443zM18.378 6.01a2.585 2.585 0 00-3.492 1.382l-.268.672-7.752 19.378a2.584 2.584 0 001.306 3.3l4.978 2.323c.665.31 1.374.492 2.09.542l6.925-17.29 2.824-7.05a5.899 5.899 0 00-1.154-.71L18.378 6.01zm4.91 11.536l2.84-7.092c.099.136.19.276.277.42l7.467 12.444a2.583 2.583 0 01-1.22 3.713l-14.724 6.135c-.333.14-.677.247-1.025.322l6.386-15.942z" fill="#3156A6"/></symbol><symbol id="logo__shfe" viewBox="0 0 111 80"><path fill-rule="evenodd" clip-rule="evenodd" d="M61.5 80h-12v-1h12v1z" fill="#C9CFE6"/><path d="M45.6 70h.96v-2.44h.56L48.83 70H50l-2.12-2.928 1.96-2.672h-1.104l-1.616 2.28h-.56V64.4h-.96V70zM50.393 70.08h.08c1.744 0 1.84-1.6 1.84-3.12v-1.68h1.92V70h.96v-5.6h-3.84v2.56c0 1.24-.016 2.24-.88 2.24h-.08v.88zM57.18 70h1.008l2.44-5.6H59.62l-1.232 2.96h-.016L56.98 64.4h-1.072l1.968 4-.696 1.6zM61.35 70h2.04c1.351 0 2.04-.688 2.04-1.776 0-1.104-.673-1.776-2.04-1.776h-1.08V65.28h2.72v-.88h-3.68V70zm.96-.88v-1.792h1.04c.703 0 1.071.368 1.071.896 0 .544-.352.896-1.072.896h-1.04z" fill="#464E5F"/><path fill-rule="evenodd" clip-rule="evenodd" d="M50.156 5.412a3.418 3.418 0 014.617-1.828l4.365 2.038a6.076 6.076 0 012.644 2.383l5.973 9.954a3.416 3.416 0 01-1.615 4.912l-11.778 4.908a6.08 6.08 0 01-4.913-.103l-3.982-1.859a3.417 3.417 0 01-1.727-4.365l6.416-16.04zm3.983-.468a1.918 1.918 0 00-2.59 1.025l-6.417 16.04a1.917 1.917 0 00.97 2.449l3.982 1.858c.48.225.992.362 1.51.41L59.31 7.464a4.568 4.568 0 00-.806-.482L54.14 4.944zm6.298 3.738l-7.166 17.892c.174-.05.345-.11.514-.18l11.779-4.908a1.916 1.916 0 00.905-2.755l-5.973-9.954a4.736 4.736 0 00-.059-.095z" fill="#3156A6"/><path d="M93.67 46h-1.943v-8.4h1.44v6.6h.024l3.432-6.6h1.944V46h-1.44v-6.6h-.024L93.67 46zM97.007 35.2c0 1.032-.648 1.68-1.86 1.68-1.212 0-1.86-.648-1.86-1.68h1.08c0 .54.3.84.78.84.48 0 .78-.3.78-.84h1.08zM64.558 43.24c-.24 1.692-1.428 2.88-3.42 2.88-2.196 0-3.66-1.464-3.66-4.128v-.504c0-2.532 1.476-4.008 3.66-4.008 1.98 0 3.18 1.2 3.42 2.76h-1.56c-.24-.84-.84-1.44-1.86-1.44-1.272 0-2.148.876-2.148 2.688v.504c0 1.908.9 2.808 2.148 2.808.996 0 1.596-.6 1.836-1.56h1.584z" fill="#3156A6"/><path fill-rule="evenodd" clip-rule="evenodd" d="M17.354 46.108h-1.44v-.528c-2.46 0-3.9-1.44-3.9-3.648v-.264c0-2.184 1.464-3.648 3.9-3.648v-.528h1.44v.528c2.46 0 3.9 1.44 3.9 3.648v.264c0 2.184-1.464 3.648-3.9 3.648v.528zm2.388-4.176v-.264c0-1.476-.852-2.328-2.388-2.328v4.92c1.56 0 2.388-.828 2.388-2.328zm-6.216-.264v.264c0 1.476.852 2.328 2.388 2.328v-4.92c-1.56 0-2.388.828-2.388 2.328z" fill="#3156A6"/><path d="M24.813 46H22.87v-8.4h1.44v6.6h.024l3.432-6.6h1.944V46h-1.44v-6.6h-.024L24.813 46zM31.746 46h1.44v-3.66h3.96V46h1.44v-8.4h-1.44v3.42h-3.96V37.6h-1.44V46z" fill="#3156A6"/><path fill-rule="evenodd" clip-rule="evenodd" d="M41.343 46h-1.44l3-8.4h1.68l3 8.4h-1.536l-.696-2.1h-3.3l-.708 2.1zm2.364-7.02l-1.212 3.6h2.424l-1.188-3.6h-.024z" fill="#3156A6"/><path d="M48.902 46h1.44v-3.66h3.96V46h1.44v-8.4h-1.44v3.42h-3.96V37.6h-1.44V46z" fill="#3156A6"/><path fill-rule="evenodd" clip-rule="evenodd" d="M69.595 46.12c2.244 0 3.72-1.476 3.72-4.128v-.504c0-2.544-1.464-4.008-3.72-4.008-2.244 0-3.72 1.476-3.72 4.008v.504c0 2.664 1.464 4.128 3.72 4.128zm0-1.32c-1.32 0-2.208-.888-2.208-2.808v-.504c0-1.824.864-2.688 2.208-2.688 1.308 0 2.208.9 2.208 2.688v.504c0 1.944-.876 2.808-2.208 2.808zM78.171 46h-3.12v-8.4h2.88c2.16 0 3 .84 3 2.28 0 .756-.36 1.356-1.068 1.74v.024c.852.36 1.308 1.02 1.308 1.932 0 1.584-.84 2.424-3 2.424zm1.248-6c0-.696-.384-1.08-1.548-1.08h-1.38v2.16h1.38c1.164 0 1.548-.384 1.548-1.08zm.24 3.48c0-.816-.384-1.2-1.548-1.2h-1.62v2.4h1.62c1.164 0 1.548-.384 1.548-1.2zM86.27 46.12c2.244 0 3.72-1.476 3.72-4.128v-.504c0-2.544-1.464-4.008-3.72-4.008-2.244 0-3.72 1.476-3.72 4.008v.504c0 2.664 1.464 4.128 3.72 4.128zm0-1.32c-1.32 0-2.208-.888-2.208-2.808v-.504c0-1.824.864-2.688 2.208-2.688 1.308 0 2.208.9 2.208 2.688v.504c0 1.944-.876 2.808-2.208 2.808z" fill="#3156A6"/><path d="M4.375 58.12c2.196 0 3.66-1.464 3.66-4.128v-.504c0-2.532-1.476-4.008-3.66-4.008-1.98 0-3.18 1.2-3.42 2.76h1.56c.24-.828.84-1.44 1.86-1.44 1.284 0 2.04.804 2.136 2.328H3.355v1.224H6.51c-.084 1.644-.888 2.448-2.136 2.448-.996 0-1.596-.6-1.836-1.56H.955c.24 1.692 1.428 2.88 3.42 2.88z" fill="#3156A6"/><path fill-rule="evenodd" clip-rule="evenodd" d="M14.69 58.108h-1.44v-.528c-2.46 0-3.9-1.44-3.9-3.648v-.264c0-2.184 1.465-3.648 3.9-3.648v-.528h1.44v.528c2.46 0 3.9 1.44 3.9 3.648v.264c0 2.184-1.463 3.648-3.9 3.648v.528zm2.389-4.176v-.264c0-1.476-.852-2.328-2.388-2.328v4.92c1.56 0 2.388-.828 2.388-2.328zm-6.216-.264v.264c0 1.476.852 2.328 2.388 2.328v-4.92c-1.56 0-2.388.828-2.388 2.328zM23.686 58.108h1.44v-.528c2.436 0 3.9-1.464 3.9-3.648v-.264c0-2.208-1.44-3.648-3.9-3.648v-.528h-1.44v.528c-2.436 0-3.9 1.464-3.9 3.648v.264c0 2.208 1.44 3.648 3.9 3.648v.528zm3.828-4.44v.264c0 1.5-.828 2.328-2.388 2.328v-4.92c1.536 0 2.388.852 2.388 2.328zm-6.216.264v-.264c0-1.5.828-2.328 2.388-2.328v4.92c-1.536 0-2.388-.852-2.388-2.328z" fill="#3156A6"/><path d="M36.041 58h-5.4v-8.4h5.4v1.32h-3.96v2.1h3.24v1.32h-3.24v2.34h3.96V58zM37.714 58h1.44v-3.66h.84L42.561 58h1.752l-3.18-4.392 2.94-4.008h-1.657l-2.424 3.42h-.84V49.6h-1.44V58zM49.048 58h-1.44v-7.08h-2.58V49.6h6.6v1.32h-2.58V58zM53.006 58h1.944l3.432-6.6h.024V58h1.44v-8.4h-1.944l-3.432 6.6h-.024v-6.6h-1.44V58z" fill="#3156A6"/><path fill-rule="evenodd" clip-rule="evenodd" d="M65.003 58h-3.12v-8.4h2.88c2.16 0 3 .84 3 2.28 0 .756-.36 1.356-1.068 1.74v.024c.852.36 1.308 1.02 1.308 1.932 0 1.584-.84 2.424-3 2.424zm1.248-6c0-.696-.384-1.08-1.548-1.08h-1.38v2.16h1.38c1.164 0 1.548-.384 1.548-1.08zm.24 3.48c0-.816-.384-1.2-1.548-1.2h-1.62v2.4h1.62c1.164 0 1.548-.384 1.548-1.2z" fill="#3156A6"/><path d="M69.681 58h1.44v-3.66h3.96V58h1.44v-8.4h-1.44v3.42h-3.96V49.6h-1.44V58z" fill="#3156A6"/><path fill-rule="evenodd" clip-rule="evenodd" d="M85.698 53.992c0 2.652-1.476 4.128-3.72 4.128-2.256 0-3.72-1.464-3.72-4.128v-.504c0-2.532 1.476-4.008 3.72-4.008 2.256 0 3.72 1.464 3.72 4.008v.504zm-5.928 0c0 1.92.888 2.808 2.208 2.808 1.332 0 2.208-.864 2.208-2.808v-.504c0-1.788-.9-2.688-2.208-2.688-1.344 0-2.208.864-2.208 2.688v.504z" fill="#3156A6"/><path d="M90.795 58.12c1.992 0 3.18-1.188 3.42-2.88H92.63c-.24.96-.84 1.56-1.836 1.56-1.248 0-2.148-.9-2.148-2.808v-.504c0-1.812.876-2.688 2.148-2.688 1.02 0 1.62.6 1.86 1.44h1.56c-.24-1.56-1.44-2.76-3.42-2.76-2.184 0-3.66 1.476-3.66 4.008v.504c0 2.664 1.464 4.128 3.66 4.128zM98.828 58h-1.44v-7.08h-2.58V49.6h6.6v1.32h-2.58V58zM102.786 58h1.944l3.432-6.6h.024V58h1.44v-8.4h-1.944l-3.432 6.6h-.024v-6.6h-1.44V58z" fill="#3156A6"/></symbol><view id="icon__default-view" viewBox="0 0 24 24"/>
<use href="#icon__default" width="24" height="24" x="0" y="0"/>
</svg>